<?xml version="1.0" encoding="UTF-8"?>
<svg id="Layer_2" data-name="Layer 2" xmlns="http://www.w3.org/2000/svg" viewBox="0 0 634.9 970.29">
  <g id="Layer_1-2" data-name="Layer 1">
    <g>
      <path d="M163.41,602.58c-2.98,13.46-4.13,27.18-4.18,40.77-.18,43.71,2.71,87.3,9,130.67,2.57,17.72,8.74,34.41,17.3,50.42,1.88,3.52,3.9,8.54,8.53,8.53,8.64-.03,16.55,2.94,24.95,3.47,2.38,.15,4.53-.4,6.03-1.97,9.67-10.13,19.1-20.28,19.13-34.85,.03-18.34,.29-36.68,.81-55,.87-30.45,8.51-60.11,13.44-90.08,.45-2.76,.18-7.19,4.55-6.82,4.98,.43,3.64,4.97,3.69,8.11,.03,1.98-.44,3.98-.86,5.94-1.8,8.51-3.93,16.98-5.47,25.53-6.78,37.63-8.74,75.54-8.37,113.63,.14,14.06,3.25,26.78,12.34,38.57,7.46,9.68,17.13,14.15,29.69,14.65,5.98,.24,10.82-1.79,14.59-5.89,7.58-8.25,14.4-16.85,17.39-27.53,2.8-10.02,5.97-19.96,9.1-29.9,10.49-33.37,19.03-67.18,27.03-101.09,6.84-28.97,15.29-57.7,18.36-87.32,.18-1.7,.29-3.49,2.69-3.7,2.14-.18,3.32,1.26,4.13,2.77,2.04,3.81,1.58,7.81,.73,11.77-2.24,10.47-4.57,20.93-6.86,31.39-9.75,44.48-20.64,88.72-33.42,132.58-4.88,16.76-9.66,33.56-15.1,50.18-3.36,10.26-7.85,20.2-18.53,26.49-1.43,.84-2.83,2.18-2.44,4.14,.49,.46,.88,1.1,1.48,1.34,1.34,.54,2.77,.93,4.19,1.28,33.67,8.46,67.66,13.7,102.78,8.87,24.83-3.41,49.67-6.62,73.08-15.49,22.65-8.59,44.51-18.72,61.19-35.26,29.83-29.59,44.14-65.27,44.56-105,.36-34.42-13.35-65.21-34.19-93.6-2.04-2.78-4.39-5.42-5.99-8.39-2.43-4.51-1.27-6.66,3.75-8.4,6.99-2.43,7.3-2.96,4.51-8.81-.87-1.83-2.09-3.52-3.15-5.28-12.03-20.09-29.3-36.75-44.42-54.8-15.83-18.91-31.68-37.76-44.11-58.7-9.3-15.67-16.76-31.93-18.16-49.99-.6-7.71-1.1-8.01-9.29-4.47-14.05,6.07-28.75,10.44-43.66,14.32-2.83,.74-5.67,1.66-8.68,1.11-1.91-.35-3.44-1.28-3.69-3.2-.26-1.95,.99-3.19,2.87-3.75,1.74-.51,3.64-.57,5.4-1.03,19.19-5.01,38.2-10.61,55.23-20.25,30.75-17.41,51.98-42.41,65.99-72.13,16.21-34.38,14.62-69.61,2.21-104.68-5.41-15.29-12.95-29.78-22.23-43.51-1.07-1.59-3.28-3.45-.55-5.11,1.98-1.2,4.36-.43,6.12,.96,3.67,2.91,6,6.73,8.28,10.55,10.38,17.45,18,35.89,22.38,55.24,6.71,29.66,5.89,59.16-7.08,87.47-12.77,27.89-31.78,51.82-58.57,70.33-2.88,1.99-6.1,3.68-6.01,7.78,.23,10.34-.25,20.82,3.82,30.67,5.82,14.07,12.99,27.62,21.93,40.31,12.89,18.31,27.55,35.48,42.35,52.55,11.83,13.65,24.24,26.91,34.34,41.73,3.3,4.84,6.58,9.69,8.4,15.16,1.67,5,2.24,10.11-3.43,13.48-4.06,2.41-2.96,4.57-.7,7.36,13.25,16.35,22.05,34.73,28.36,53.97,3.86,11.78,8.36,22.47,16.57,32.9,14.73,18.71,19.1,41.26,16.81,64-2.4,23.82-11.31,46.15-24.44,66.99-19.06,30.25-45.76,53.99-78.16,72.27-44.48,25.09-92.29,43.39-143.75,53.16-20.93,3.97-41.98,7.58-63.36,9.38-41.27,3.48-80.91-3.24-119.56-15.6-21.37-6.83-41.29-16.34-58.06-30.44-14.01-11.78-25.24-25.3-29.88-42.44-4.79-17.7,.63-41.41,31.94-46.03,7.34-1.08,14.69-1.22,22.06-1.55,8.78-.39,9.49-1.11,5.7-8.03-9.12-16.65-14.23-34.3-16.95-52.6-5.48-36.72-8.58-73.59-8.73-110.66-.08-20.36,.38-40.63,4.17-60.81,1.7-9.08,4.25-18.35,1.19-27.76-3.95-12.14-5.09-24.89-10.02-36.85-2.77-6.71-2.22-13.81-.79-20.77,2.09-10.23,5.72-20.02,11.17-29.21,3.66-6.17,7.44-12.29,11.12-18.45,4.22-7.06,4.22-7.51-3.92-11.43-8.83-4.25-16.96-9.45-25.29-14.39-32.77-19.45-57.46-45.06-70.24-78.74-3.37-8.88-9.11-11.98-17.61-14.01-11.8-2.82-23.7-5.09-35.85-6.26-4.03-.39-8.06-.9-12.03-1.63-1.83-.34-3.39-1.51-2.94-3.54,.31-1.43,1.61-2.31,3.14-2.42,2.93-.22,5.89-.36,8.83-.24,11.88,.47,23.3,3.3,34.86,5.48,3.79,.71,7.55,2.69,12.34,1.24-.5-6.63-3.95-12.34-4.97-18.49-.91-5.52-4.43-8.96-9.76-11.27-10.96-4.75-21.61-10.3-34.27-10.53-2.31-.04-4.67-.55-5.14-2.91-.59-2.94,1.88-4.04,4.44-4.82,2.55-.77,5.1-.49,7.64,.12,6.78,1.63,13.5,3.35,19.87,6.13,3.86,1.69,7.6,3.99,11.99,4.1,.58-1,1.25-1.61,1.18-2.14-1.99-16.46,.78-32.38,5.01-48.43,6.69-25.39,18.02-48.43,35.62-69.25,14.49-17.15,30.42-32.59,51.07-43.75,2.07-1.12,5.17-1.92,4.84-4.86-1.49-13.09,3.63-24.86,9.48-36.25,4.03-7.84,9.34-15.01,9.09-24.23-.07-2.79,1.76-5.77,3.23-8.43,6.29-11.34,12.86-22.57,21.55-32.59,10.54-12.16,22.44-23.12,37.72-30.47,14-6.73,28.91-6.54,35.9,10.16,4.84,11.54,9.99,22.94,12.95,35.04,.52,2.14,.43,4.77,4.75,6.1,11.6-9.66,25.68-16.67,41.45-20.85,3.39-.9,3.11-3.28,1.84-5.68-2.88-5.44-5.37-11-5.67-17.13-.15-3.03-.49-6.37,3.48-7.64,3.33-1.06,5.41,1.45,7.57,3.21,4.14,3.37,4.95,8.92,9.29,11.97,2.53,.25,3.43-1.46,4.7-2.57,1.98-1.74,4.15-2.95,6.92-1.78,3.35,1.42,3,4.22,2.89,6.92-.13,3.34-3.09,6.11-2.19,10.55,30.73,3.86,50.94,21.08,64.29,44.99,3.26-.19,4.37-1.64,5.52-2.88,15.54-16.56,35.75-27.76,55.66-39.21,7.12-4.1,14.92-7.32,22.68-10.39,3.71-1.47,9.52-4.38,11.56,.49,1.98,4.7-4.72,4.83-8.05,6.18-26.86,10.92-51.16,25.28-71.66,44.41-8.44,7.87-15.53,16.92-23.33,25.37-1.63,1.77-3.58,3.33-5.58,4.76-1.22,.87-2.77,.75-4.04-.28-1.25-1.02-1.63-2.46-.82-3.6,1.98-2.79,3.98-5.66,6.53-8.02,4.76-4.41,5.07-8.81,2.55-14.51-14.67-33.09-56.67-48.58-92.88-33.98-5.49,2.21-9.61,14.48-6.34,18.95,.88,1.2,2.21,1.75,3.76,1.66,9.94-.59,19.88-1.17,29.81-1.85,4.25-.29,6.68-2.3,6.96-6.37,.18-2.63,.55-5.33,1.4-7.83,.65-1.9,2.27-3.6,4.99-2.88,2.17,.57,2.37,2.34,2.28,4.06-.05,1-.4,1.98-.44,2.97-.28,8.19,.48,8.8,9.95,9.25,8.11,.38,16.21,.85,24.29,1.53,2.52,.21,5.47,1.04,4.74,4.26-.57,2.5-3.21,2.37-5.39,2.37-8.49,0-16.98-.12-25.47-.07-3.09,.02-6.06,.65-6.3,4.21-.27,4.01,2.66,5.05,6.35,5.32,4.77,.35,9.56,.61,14.3,1.19,1.77,.21,3.59,1.14,3.65,3.18,.06,2.11-1.81,2.83-3.58,3.15-2.15,.39-4.43,.63-6.6,.44-5.84-.5-10.07,2.38-15.05,4.32-4.52,1.76-9.51-5.29-16-3.73-2.8,.67-5.87,.53-8.82,.55-2.26,0-4.63-.4-4.78-3.02-.11-2,1.76-2.99,3.55-3.27,4.35-.68,8.76-1.06,13.14-1.53,2.88-.31,5.14-1.39,4.94-4.31-.18-2.7-.9-5.41-4.55-6.08-1.43-.26-2.93-.26-4.4-.31-8.92-.32-17.63,1.49-26.45,2.19-5.48,.44-7.66,3.71-6.69,8.45,.93,4.58,2.61,9.05,3.29,13.66,.57,3.86,2.61,5.02,6.59,4.93,9.97-.23,19.95-.13,29.91-.44,11.54-.36,22.83,1.32,34.12,2.98,3.16,.47,7.39,1,6.38,5.11-.84,3.41-4.6,2.59-7.49,2.17-6.19-.9-12.35-2.05-18.56-2.79-4.37-.52-9.14-1.38-13.08,.67-13.33,6.92-27.36,12.59-39.8,21.09-16.18,11.06-33.88,20.09-53.01,26.6-11.1,3.77-22.46,6.91-34.31,7.39-14.67,.59-21.11-7.6-16.17-20.18,3.42-8.69,10.36-15.26,17.63-21.51,1.9-1.64,4.76-2.65,5.79-6.33-18.51,4.57-35.43,10.12-51.88,16.82-31.2,12.71-58.04,30.91-78.51,55.59-20.44,24.63-32.58,52.87-38.03,83.37-1.78,9.98-1.81,19.98-.46,29.92,4.26,31.51,15.32,61.05,32.86,88.54,10.73,16.81,26.8,29.13,43.57,40.69,12.63,8.71,25.86,16.59,40.29,22.8,7.16,3.08,7.4,4.79,3.64,10.87-.72,1.16-1.72,2.18-2.43,3.35-7.25,11.99-15.6,23.48-20.35,36.59-2.45,6.77-4.43,13.63-3.17,22.58,4.8-6.91,9.21-11.82,15.48-14.93,8.82-4.38,16.14-.83,15.57,8.13-.75,11.76-5.72,22.1-16.81,29.1-8.06,5.09-8.55,4.97-5.69,13.34,4.78,14.01,10.53,27.77,14.96,41.87,10.81,34.39,27.91,65.92,50.96,94.92,4.3,5.41,8.31,11.03,12.34,16.61,1.33,1.85,1.47,3.87-.9,5.2-1.85,1.03-3.59,.17-4.97-1.03-1.05-.91-1.94-2-2.81-3.07-9.88-12.07-19.19-24.48-28.25-37.07-5.11-7.09-6.83-15.5-11.88-22.33-3.74-5.07-6.96-10.2-9.2-15.84-4.74-11.93-9.24-23.93-13.86-35.89-.93-2.4-.91-5.24-3.56-6.8-1.92,.57-1.94,2-2.22,3.28ZM261.92,94.86c-1.12,2.8-2.37,6.05-.12,8.52,2.66,2.93,6.82,1.68,10.32,1.24,5.49-.69,5.36-4.69,5.22-8.37-.15-4.08-3.18-3.53-6.26-2.98-3.41,.61-5.66-.61-6.39-3.81,2.73-1.7,5.55-3.29,8.15-5.13,3.31-2.34,4.04-5.2,1.3-9.23-5.77,3.86-7.92,8.95-9.36,14.44-.97,1.76-2.14,3.47-2.87,5.31Zm10.71,42.44c-7.35-2.07-13.76-1.1-19.42,3.69-.8,.67-1.78,1.19-2.74,1.66-1.93,.95-4.05,2.2-6.09,.58-2.25-1.79-.76-3.56,.63-5.17,.88-1.03,1.97-2,1.14-3.63-5.13-2.39-7.9,1.63-11.47,3.59-2.02,1.11-4.02,3.97-6.62,1.66-2.42-2.15,.33-4.19,1.34-6.2,.43-.85,.56-1.83,1.09-3.67-7,.34-8.81,5.61-12.38,8.7-2.49,2.16-3.66,4.95-4.6,7.84-2.4,7.37,.58,10.9,9.22,10.25,8.09-.61,16.05-2.36,23.54-5.12,11.5-4.24,23.96-6.68,33.93-13.98,5.84-1.48,10.35-5.05,15.26-7.98,10.75-6.42,20.74-13.83,31.86-19.08-.17-2.83-2.01-2.48-3.24-2.39-17.65,1.27-35.29,2.63-52.94,3.97-1.86,.14-4.47,.31-4.79,1.89-1.26,6.18-8.14,7.33-12.44,11.95,3.8,2.32,6.84,1.06,9.98-.54,5.78-2.95,11.6-5.84,17.44-8.71,2.27-1.11,4.61-2.17,7.32-1.97,1.54,.11,2.93,.62,3.42,2.07,.48,1.41-.04,2.73-1.46,3.41-3.58,1.71-7.29,3.2-10.88,4.9-3.71,1.76-6.64,3.68-1.44,7.08,1.97,1.29,1.98,3.46,2.01,5.49-2.57-.06-5.31,.39-7.67-.27Zm328.14,621.43c-14.17,46.41-45.16,79.05-93.9,98.73-22.86,9.23-46.69,14.07-71.01,18.33-47.49,8.32-92.96,.97-138.29-11.7-33.77-9.44-67.46-19.69-103.01-22.73-14.36-1.23-28.66-1.09-43.02,1.05-25.44,3.79-30.2,21.41-25.93,36.55,4.75,16.83,16.19,29.81,30.42,40.83,19.38,15.01,42.14,24.36,66.38,30.99,24.84,6.79,50.37,10.52,76.16,11.69,13.11,.6,26.44-.89,39.62-2.67,37.64-5.09,75-11.14,110.4-24.33,27.98-10.43,55.85-21.33,81.02-36.65,50.11-30.51,84.71-70.93,94.57-126.12,4.01-22.46-1.37-43.56-14.15-63.25-1.8,16.81-4.33,33.11-9.27,49.29ZM184.08,68.21c7.13-1.29,11.37,2.18,10.65,8.77-.71,6.53-6.16,11.93-14.89,12.45-6.71,.4-9.74,3.57-12.65,8.07-6.47,10-10.66,22.29-11.27,34.56,7.96-2.13,15.28-4.83,20.89-10.2,2.16-2.07,4.6-4.37,7.29-3.81,7.24,1.52,12.85-2.02,19.01-3.9,12.59-3.84,25.28-7.47,38.47-9,6.13-.71,9.13-3.32,10.52-8.47,2.93-10.8,7.62-20.87,16.04-29.25,2.71-2.7,3.19-6,2.44-9.38-3.42-15.41-8.16-30.45-16.55-44.32-4.78-7.91-6.5-8.38-15.98-5.86-4.65,1.24-8.93,3.25-12.85,5.73-20.43,12.93-35,30.32-46.25,50.16-.93,1.63-2.43,3.46-.99,5.58,2.42,1.27,4.09-.76,6.12-1.13Zm106.79,34.99c10.36,.89,13.17-1.88,10.87-11.11-.32-1.29-.52-2.63-1.09-3.83-1.1-2.31-.31-6.37-3.74-6.52-4.05-.18-7.78,2.36-9.36,5.86-1.35,2.99-1.47,6.43-1.75,7.77-.64,5.48,.81,7.46,5.08,7.83Zm7.1-47.54c-3.56-1.54-6.14,2.58-8.93,4.52-1.73,1.2-3.46,2.56-4.65,4.18-2.85,3.84-1.08,7.86,.82,11.31,1.98,3.6,5.07,.05,7.67,.05,5.61,0,5.14-3.58,5.15-6.91,0-1.65,0-3.3,0-4.95,.11-2.82,3.28-6.74-.07-8.19Zm-138.5,483.69c0,1.4,.35,2.62,1.81,3.31,1.48,.7,2.97,.3,4.05-.6,1.87-1.55,3.86-3.12,5.2-5.02,3.72-5.29,6.35-10.94,6-17.68-9.48,3.02-17.07,12.2-17.06,20Zm73.98,299.29c7.53,3.54,14.84,4.65,24.42,6.2-5.59-7.43-10.01-13.09-12.67-21.43-4.71,6.09-8.02,10.39-11.75,15.22Zm24.1-724.79c-8.81,.13-14.81,4.97-20.67,10.05,8.98,.14,14.31-5.81,20.67-10.05Z"/>
      <path d="M385.38,355.8c-14.31,11.01-31.37,15.6-49.84,17.05-42.89,3.37-81.13-18.47-93.33-55.9-6.27-19.22-7.6-38.8-3.79-58.36,5.67-29.16,23.3-45.68,55.49-48.39,7.88-.66,15.49,.08,23,1.83,23.89,5.54,45.61,15.33,65.33,28.55,21.31,14.29,31.7,33.71,31.21,67.93-.59,12.44-8.52,32.25-28.07,47.29Zm-.27-10.07c23.24-21.87,29.93-65.54,2.43-91.19-10.64-9.93-23.87-16.68-37.23-23.08-6.82-3.26-14.17-5.64-21.23-8.5-12.9-5.23-26.17-5.87-40.04-3.85-20.02,2.91-33.03,13.17-38.67,30.24-8.41,25.46-6.37,50.9,4.7,75.36,11.62,25.68,42.04,41.28,71.64,40.66,22.08-.19,42.45-4.65,58.4-19.65Z"/>
      <path d="M527.13,137.12c-.5-7.97,.26-16.01-1.81-23.88-.96-3.65,0-6.24,3.81-8.37,10.71-5.99,13.3-15.65,12.68-26.05-.97-16.45-5.17-32.24-14.13-46.78-.89-1.45-1.79-2.92-2.89-4.24-1.84-2.2-4.16-4.46-7.33-2.47-3.43,2.16-1.07,4.79,.47,6.97,11.06,15.68,15.76,32.82,14.82,51.32-.19,3.72-.84,7.32-3.04,10.51-3.18,4.63-6.25,4.72-9.69,.12-2.49-3.34-5.03-6.59-8.67-8.97-3.16-2.07-6.6-3.32-10.15-.88-3.55,2.45-2.99,5.86-1.88,9.14,1.49,4.39,5.1,7.49,9.26,9.59,5.95,3,7.52,7.61,8.35,13.17,2.04,13.62,2.53,27.2,.05,40.79-.87,4.79-.75,10.28-9.11,10.06-3.16-.08-3.82,2.7-2.61,5.29,2.86,6.12,10.32,6.94,14.94,1.59,3.3-3.81,4.09-8.45,5.15-13.03,1.83-7.9,1.48-15.91,1.79-23.89Z"/>
      <path d="M273.26,598.43c-2.25-14.91-.68-31.77-5.55-48.03-.92-3.06-1.2-5.66,1.98-8.07,5.94-4.5,6.76-10.8,6.61-17.31-.23-10.03-2.24-19.88-3.59-29.79-.9-6.61-2.07-13.19-3.19-19.78-.39-2.3-.75-4.64-1.54-6.84-1.03-2.83-2.44-6.65-6.3-5.78-4.72,1.06-2.02,5.02-1.49,7.62,3.47,17.06,6,34.23,7.66,51.5,.19,1.99,.42,4.02,.16,5.97-.34,2.62-.58,5.59-3.17,7.22-2.83,1.78-4.59-1.04-6.74-2.05-2.09-.98-4.19-1.57-5.95,.38-1.33,1.47-1.08,3.23-.04,4.67,13.46,18.54,9.47,39.94,11.88,60.23,1.15,9.69-1.46,19.23-5.49,28.34-.55,1.24-1.2,2.44-1.68,3.7-1.1,2.83-2.81,6.28,1.55,7.66,4.36,1.38,5.33-2.46,6.67-5.1,5.32-10.45,7.95-21.45,8.23-34.53Z"/>
      <path d="M480.89,720.42c1.41-.52,1.75-.76,2.06-.74,16.26,1.28,20.53-2.34,19.38-17.16-.99-12.77-5.41-24.81-10.71-36.58-.67-1.5-1.73-2.98-3-4.12-2.2-1.96-4.68-1.73-6.83,.21-1.85,1.66-1.77,3.48-.18,5.33,9.29,10.8,9.98,24.03,12.69,36.69,.21,.97,.16,2,.08,2.99-.48,5.64-2.86,6.93-8.74,4.54-2.34-.95-4.48-2.31-6.71-3.49-2.21-1.17-4.41-2.81-7.1-1.24-3.1,1.82-2.35,4.58-1.79,7.22,.63,2.95,1.39,5.87,1.89,8.83,1.55,9.03,1.43,18-2.49,26.56-3.48,7.59-7.31,9.33-16.84,8.14-1.94-.24-3.86-.38-4.86,1.31-1.25,2.12,.15,3.84,1.81,5.27,5.11,4.39,12.87,4.27,19.1-.66,6.63-5.25,10.27-12.13,11.58-19.95,.66-3.95,1.21-7.94,1.34-11.93,.11-3.63-.42-7.27-.68-11.22Z"/>
      <path d="M372.95,519.47c.08,3.99,.23,8.01-1.13,11.87-3.27,9.32-9.58,11.82-19.39,7.66-2.84-1.2-6.05-4.27-8.43-.3-2.03,3.39,1.55,5.36,4.3,7.05,10.97,6.71,22.27,4.24,29.12-6.2,2.89-4.41,4.07-9.27,4.96-14.19,.6-3.3,2.09-4.82,5.94-3.69,1.75,.51,3.55,.96,5.37,1.17,7.16,.82,12.63-1.67,14.76-7.83,4.06-11.75-.1-22.97-4.07-34.04-.71-1.99-3.15-2.87-5.53-1.78-2.48,1.13-2.41,3.16-1.45,5.15,3.48,7.15,4.99,14.62,4.31,22.39-.73,8.29-4.92,10.4-13.37,6.8-2.3-.98-4.34-2.48-6.5-3.74-6.23-3.64-8.57-2.68-8.89,3.71-.1,1.99-.02,3.99-.02,5.99Z"/>
      <path d="M120.16,258.29c2.02,11.12,4.32,21.96,9.8,31.91,5.73,10.43,13.2,12.15,24.42,6.05,10.15-5.52,16.42-14.22,22.69-22.88,1.48-2.04,2.33-4.6-.38-6.25-2.96-1.81-4.55,.51-6.14,2.42-3.99,4.79-7.87,9.67-12.19,14.21-2.12,2.23-4.89,4.11-7.72,5.61-6.43,3.42-10.12,2.42-13.17-3.77-3.6-7.33-6.26-14.96-7.44-22.96-.39-2.63-1.05-5.24-1.74-7.83-.56-2.09-1.85-3.84-4.51-3.61-2.66,.23-3.49,2.14-3.61,4.31-.06,1,0,2,0,2.77Z"/>
      <path d="M205.85,320.15c3.65,1.94,4.3,5.06,5.96,7.57,1.71,2.56,3.45,5.11,5.35,7.56,1.6,2.07,3.87,3.45,6.58,1.91,2.71-1.54,1.91-4.02,1.11-6.29-.11-.32-.27-.62-.43-.92-3.74-6.87-7.23-13.87-11.3-20.57-2.91-4.78-6.61-4.89-10.27-.48-4.2,5.05-8.01,10.37-11.92,15.61-.81,1.09-1.49,2.32-1.91,3.58-.65,1.95-.94,4.08,1.41,5.3,2.3,1.2,4.3,.25,5.74-1.49,3.25-3.91,5.67-8.42,9.68-11.79Z"/>
      <path d="M82.71,838.6c-.63,1.41-.98,2-1.16,2.64-1,3.45-3.32,7.96,1.66,9.53,5.58,1.76,5.69-3.6,7.14-6.75,2.94-6.4,5.51-12.97,10.76-18.25,1.49-1.49,2.82-3.07,3.09-5.13,.22-1.66,.22-3.38-1.5-4.47-1.83-1.16-3.52-.35-4.91,.77-7.57,6.11-12.23,13.88-15.08,21.66Z"/>
      <path d="M213.3,295.98c.57-.12,2.06-.25,3.4-.71,3.84-1.32,7.9-2.95,8.05-7.18,.17-4.65-4.36-5.64-8.25-6.51-3.53-.79-7.18-1.45-10.8-1.55-6.01-.16-9.24,4.91-5.98,9.49,2.87,4.04,6.96,6.77,13.59,6.45Z"/>
      <path d="M101.5,847.31c-.14,2.45,.28,4.89,3.18,5.68,3.11,.84,4.79-1.3,5.63-3.54,1.89-5.04,4.01-9.88,8.17-13.86,1.55-1.48,2.23-3.57,.27-5.31-1.82-1.61-4.13-1.18-6.16-.39-3.95,1.54-5.91,4.75-7.74,8.03-1.67,2.98-2.75,6.11-3.35,9.39Z"/>
      <path d="M295.5,278.71c1.73,7.08,1.62,15.19,6.19,22.43,6.14,9.73,15.46,13.01,27.05,8.9,13.85-4.91,21.93-15.28,29.7-25.9,1.07-1.46,1.23-3.24-.63-4.43-1.7-1.08-3.65-.88-5.04,.39-2.31,2.12-4.38,4.45-6.52,6.73-4.99,5.33-9.67,10.97-16.75,14.29-11.07,5.2-18.71,2.38-21.89-8.37-1.32-4.48-1.81-9.16-2.69-13.74-.38-1.96-.63-3.95-1.25-5.85-.54-1.65-1.81-2.97-3.94-2.93-2.66,.04-3.87,1.65-4.19,3.81-.2,1.3-.04,2.65-.04,4.67Z"/>
    </g>
  </g>
</svg>