<?xml version="1.0" encoding="UTF-8"?>
<svg id="Layer_2" data-name="Layer 2" xmlns="http://www.w3.org/2000/svg" viewBox="0 0 1085.49 826.31">
  <g id="Layer_1-2" data-name="Layer 1">
    <g>
      <path d="M853.85,388.35c-7.07-11.52-15.2-22.29-23.53-32.91-10.99-14.01-15.81-14.31-28.95-1.82-2.25,2.14-4.33,4.48-6.29,6.9-7.69,9.51-12.95,20.38-17.61,31.6-5.56,13.4-9.49,27.45-16.27,40.39-3.42,6.52-2.49,9.5,3.16,14.44,4.94,4.33,10.23,8.3,14.1,13.7,2.39,3.34,5.55,6.8,3.02,11.25-2.33,4.11-6.79,4.4-10.97,4.54-2.04,.07-4.12-.35-6.15-.73-7.87-1.46-15.4-3.93-22.43-7.79-16.35-8.98-32.93-17.59-48.92-27.17-9.8-5.87-20.34-7.04-30.94-6.59-9.94,.42-20.03,.93-29.87,3.13-7.27,1.63-9.14,.47-6.9-6.1,3.27-9.63-1.94-20.8,5.88-29.41,.76-.84,.58-2.67,.58-4.03,0-14.59-1.1-29.13-5.59-43.05-8.64-26.82-32.63-34.76-55.93-18.8-3.11,2.13-5.97,4.72-8.62,7.43-10.48,10.72-19.05,22.81-25.32,36.47-.94,2.05-2.96,4.04-.92,6.57,3.1,.5,5.45-1.09,7.52-2.88,3.14-2.7,5.96-5.77,9.04-8.54,1.59-1.43,3.49-2.42,5.51-.62,1.49,1.33,1.51,3.03,.77,4.73-.83,1.9-1.76,3.76-2.7,5.61-3.26,6.48-6.97,12.79-8.86,19.86-1.59,5.93-5.05,12.72-.37,17.79,4.96,5.38,12.39,2.63,18.76,1.51,4.06-.72,7.92-2.44,11.96-3.37,2.11-.49,4.29,.2,4.81,2.72,.4,1.93-.89,3.35-2.54,4.04-8.32,3.49-16.76,6.6-26.03,5.97-13.83-.94-19.03-7.88-16.45-21.45,1.07-5.61,3.89-10.89,3.86-16.57-1.29-.5-1.9-.87-2.54-.97-12.81-1.79-14.4-4.61-9-16.02,4.74-10.04,10.25-19.67,17.23-28.29,8.73-10.78,18.07-20.98,31.58-26.12,20.2-7.69,41.38,.32,50.91,19.62,6.07,12.29,8.16,25.61,9.61,39.08,.31,2.93-.69,6.22,1.96,8.83,1.02-.49,2.04-.78,2.8-1.39,8.53-6.9,16.1-15.29,27.62-17.53,.9-.17,2.45-1.29,2.36-1.64-3.05-12.51,4.64-13.37,13.74-12.98,.78,.03,1.54-1.37,2.45-1.81,4.42-2.17,7.25-.75,8.03,4.07,.22,1.33,.18,2.81-.14,4.11-1.09,4.36,1.24,6.03,4.88,7.6,22.97,9.94,39.2,26.58,48.72,49.77,.86,2.09,1.03,4.88,4.19,5.44,3.38-2.82,4.17-6.93,5.61-10.77,6.05-16.18,11.46-32.7,20.42-47.56,7.14-11.85,14.89-23.35,28.26-29.46,7.64-3.5,14.49-2.43,19.82,3.65,14.86,16.94,28.53,34.79,37.97,55.44,4.39,9.61,2.62,12.56-7.73,15.01-.5,.12-.84,.96-1.55,1.82,1.87,5.27,4.21,10.67,5.66,16.29,1.41,5.47,4.77,11.97-1.09,16.36-5.87,4.4-12.07,.63-17.44-2.35-5.02-2.78-9.51-6.52-14.76-10.21-1.63,6.44-3.03,12.1-4.52,17.73-.71,2.68-1.61,5.34-3.72,7.3-1.31,1.22-2.92,2.05-4.68,1.01-1.72-1.01-2.16-2.8-1.42-4.49,4.38-9.99,5.92-20.48,6.16-31.31,.09-4.22,2.8-5.43,6.34-2.86,4.47,3.24,8.39,7.22,12.78,10.57,4.73,3.6,9.26,7.88,16.55,8.27-1.51-12.7-6.55-22.78-12.56-32.51-1.99-3.23-3.91-6.52-5.63-9.89-.63-1.23-.21-2.7,.94-3.75,1.15-1.04,2.58-1.28,3.81-.53,1.75,1.06,3.39,2.36,4.9,3.74,3.06,2.8,6.04,5.63,11.44,5.99-.89-6.69-3.9-11.36-6.79-16.05Zm-179.73,6.51c1.51-1.19,3.29-1.17,4.65,.31,7.34,7.97,17.44,4.44,26.24,6.27,2.96,.62,4.66-1.42,3.79-4.45-1.04-3.63-2.36-7.2-3.9-10.65-.48-1.08-2.06-2.41-3.11-2.38-12.58,.35-25.38-2.31-37.68,2.31-5.2,1.95-9.33,5.34-14.17,10.6,9.34,.51,17.01,3.62,24.18-2.02Zm27.73,33.71c10.42,.16,14.52-6.49,9.92-16.07-.78-1.63-1.89-3-3.65-3.36-7.72-1.6-15.42-3.75-23.4-2.85-4.51,.51-6.02,2.29-1.49,5.61,3.33,2.44,2.12,4.53-.86,6.25-1.17,.68-2.6,1.14-3.46,2.11-2.48,2.79-1.42,5.77,2.41,6.66,5.04,1.17,10.18,1.63,15.37,1.65,1.72,0,3.44-.02,5.16,0Zm-36.18-2.08c2.63-.2,4.92-1.17,4.61-4.31-.32-3.28-3.05-3.31-5.48-3.22-3.09,.11-6.16,.57-9.25,.62-.84,.01-2.03-.68-2.49-1.41-.89-1.41,.08-2.66,1.17-3.52,2.25-1.78,4.99-2.21,7.76-2.46,2.39-.21,4.8-.3,7.19-.6,1.53-.19,2.49-1.4,2.69-2.77,.28-1.95-.88-3.39-2.78-3.68-8.56-1.28-17.2-1.14-25.73-.07-3.64,.46-4.03,4.3-4.37,7.4-.58,5.29-.19,10.76-4.58,16.24,11.46-.82,21.36-1.5,31.26-2.24Zm54.55-17.76c-.68,5.58-.27,11.03,.68,16.5,.45,2.57,1.45,4.68,4.29,5.16,4.43,.75,8.86,1.48,13.32,2.02,2.9,.35,4.48-.79,4.32-4.12-.56-11.17-15.08-31.06-25.82-35.07-2.5,5.94,3.87,10.09,3.21,15.5Zm37.8,42.35c-3.27-2.3-7.19-3.81-8.88,1.71-1.37,4.46-3.58,4.36-6.8,2.29-1.71-1.1-3.25-2.56-5.45-2.66-1.06-.05-2.13,.19-2.49,1.27-.15,.46,.22,1.46,.64,1.69,11.6,6.43,22.83,14.04,37.13,12.28,.25-.03,.44-.45,1.56-1.66-4.47-6.1-9.85-10.8-15.71-14.92Zm-53.79-14.74c7.31,6.52,14.24,10.38,22.44,11.4-6.62-4.55-11.68-12.2-22.44-11.4Z"/>
      <path d="M607.19,585.08c-7.59-13.13-9.33-27.17-7.3-42.04,1.03-7.57-.17-8.82-8.5-9.26-12.11-.64-24.19-.97-35.95-4.43-4.36-1.28-8.6-2.68-12.27-5.4-6.58-4.89-7.86-9.72-4.62-17.1,8.68-19.73,23.32-29.44,44.9-28.46,8.31,.38,15.61-.47,22.53-5.3,2.43-1.7,5.75-2.38,8.77-2.96,11.67-2.23,23.4-2,35.13-.34,2.06,.29,4.1,.59,5.86,1.86,1.24,.89,1.89,2.07,1.56,3.52-.35,1.52-1.7,2.32-3.07,2.35-2.05,.04-4.1-.39-6.16-.59-6.19-.61-12.39-1.78-18.57-1.66-7.76,.15-15.66,.81-22.5,5.58,2.03,3.47,5.47,3.9,7.84,5.85,4.46,3.67,6.17,8.42,4.48,12.77-1.8,4.64-7.05,7.59-12.65,7.11-7.56-.65-13.45-5.72-15.09-14.68-.9-4.95-3.18-6.29-7.52-6.43-14.01-.46-25.69,3.42-33.92,15.85-8.28,12.51-6.95,16.74,7.79,20.99,11.09,3.2,22.42,3.83,33.89,4.03,7.79,.13,13.13-1.72,18.24-8.59,13.76-18.49,33.92-27,57.62-16.56,3.48,1.53,7.12,2.71,10.56,4.33,25.42,12,40.27,44.45,32.41,69.54-.8,2.56-2.36,5.09-1.29,8.13,4.18,2.25,8.73,.98,13.13,1.11,7.79,.21,16.02,.5,19.6,8.72,3.43,7.9-.97,14.95-5.73,20.97-6.08,7.7-13.97,13.27-23.07,17.15-6.7,2.86-7.63,5.55-4.79,12.01,2.06,4.69,5.78,7.66,10.3,9.78,2.5,1.17,5.06,2.23,7.5,3.51,1.29,.68,1.9,2,1.51,3.5-.41,1.56-1.74,2.15-3.17,2.18-6.32,.11-11.02-3.58-15.88-6.88-3.7-2.51-4.81-9-9.34-8.88-4.29,.12-6.24,6.02-10.05,8.47-3.47,2.23-6.62,5.16-11.13,4.98-2.11-.08-4.4-.38-4.98-2.83-.67-2.82,1.57-3.43,3.68-3.78,7.13-1.2,11.21-6.58,15.41-11.55,3.85-4.56,3.61-6.07-1.38-8.76-7.45-4.03-13.67-9.51-19.11-15.77-3.25-3.74-6.67-5.3-11.53-5.49-11.2-.44-22.37-2.56-31.53-9.04-8.15-5.77-16.56-7.97-26.16-7.75-4.14,.1-8.28-.63-12.43-.71-26.2-.49-50.86,4.95-73.04,19.48-3.91,2.56-10.27,4.95-9.2,9.94,.98,4.55,7.58,3.23,11.84,3.81,7.32,1,14.13,3.32,20.35,7.23,2.65,1.67,5.41,3.91,4.13,7.52-1.35,3.8-4.9,3.25-8,2.73-6.52-1.1-12.87-3.05-18.77-5.87-9.87-4.72-19.69-6.22-30.03-1.93-1.99,.82-4.26,1.36-5.43-1.03-1.33-2.73,.26-5.44,2.67-5.73,9.94-1.2,15.27-7.72,20.2-15.44,1.75-2.74,5.14-4.57,8.03-6.43,24.97-16.06,52.26-23,81.9-20.84,4.03,.29,8.19,1.61,12.15-.35,.08-.81,.43-1.65,.16-2.12Zm41.32,17.58c2.3,.69,4.75,.95,7.15,1.24,6.12,.74,6.2,.63,6.16-5.62-.05-7.09,1.37-9.45,8.27-10.83,6.76-1.36,13.69-2.42,20.56-2.52,6.71-.1,9.92-3.17,12.07-9.08,8.82-24.21-6.72-57.32-31.06-65.92-4.4-1.56-8.58-1.4-11.22,2.44-8.68,12.64-22.15,15.79-35.75,18.78-17.21,3.78-17.23,3.71-17.64,21.25,0,.35,0,.69,0,.53-1.89,27.69,16.28,42.2,41.46,49.74Zm1.59-90.23c1.45-1.34,3.37-2.89,2.3-5.25-.8-1.78-2.84-1.82-4.51-1.79-13.26,.23-23.13,6.56-30.42,17.6,12.14-.2,23.52-2.14,32.63-10.56Zm-49.21-22.53c-.54,.26-1.16,.94-1.25,1.5-.59,3.83,2.17,5.6,4.89,7.08,2.23,1.21,4.69,1.31,6.58-.9,.39-.46,.39-1.26,.56-1.91-.35-3.46-7.53-7.34-10.79-5.77Z"/>
      <path d="M75.99,693.7c-1.39-4.12-2.21-8.08,1.44-11.52,3.25-3.07,6.95-2.4,10.72-1.28,13.42,3.99,21.3,17.1,17.97,31.94-1.38,6.15,.32,9.65,4.59,13.44,18.72,16.63,38.83,31.21,61.53,41.91,11.03,5.2,22.55,8.76,35.1,7.21,14.8-1.82,21.9-12.18,17.78-26.37-.67-2.32-1.48-4.63-2.55-6.79-11.25-22.78-24.83-43.92-43.69-61.27-2.66-2.45-4.29-5.39-5.55-8.6-.51-1.3-.19-2.78,1.06-3.73,1.2-.92,2.62-1.01,3.82-.13,1.38,1.01,2.69,2.15,3.85,3.41,11.26,12.23,21.94,24.96,31.12,38.82,7.45,11.24,14.37,22.86,18.67,35.78,3.99,12.02,1.7,23.24-6.71,29.25-7.75,5.54-16.47,8.35-26.33,7.52-17.45-1.47-32.44-9.18-47.18-17.7-17.46-10.09-33.11-22.61-48.13-35.96-2.56-2.27-4.76-4.76-8.86-4.49-23.71,1.59-42.91-8.41-59.86-23.85-4.34-3.95-8.21-8.35-14.48-9.48-2.83-.51-4.41-3.05-5.79-5.57-4.29-7.86-8.69-15.66-13.12-23.44-.72-1.27-1.7-2.8-.19-3.59,4.95-2.58,2.6-6.47,2.06-9.98-1.59-10.26-2.82-20.52-3.12-30.94-1.14-39.74,4.69-78.68,13.72-117.15,10.76-45.81,25.28-90.59,38.35-135.76,18.12-62.61,45.97-120.74,81.08-175.53,8.42-13.13,17.77-25.54,27.27-37.87,3.93-5.1,8.79-10.36,3.95-17.67-1.15-1.74-2.08-4.02,.43-5.34,2.32-1.22,3.8,.67,5.11,2.32,5.41,6.81,5.5,13-1.45,21.63-14.13,17.53-26.67,36.06-38.32,55.3-26.07,43.07-48.04,88.05-63.28,136.09-10.14,31.97-19.21,64.27-28.84,96.4-12.63,42.13-23.15,84.67-28.1,128.51-3.61,31.98-3.1,63.49,6.61,94.49,1.57,5.01,3.03,10.09,6.46,14.03,9.99,11.49,20.09,23.05,33.6,30.57,9.92,5.53,20.32,10.21,33.96,8.73-6.19-8.47-11.93-15.01-14.73-23.34Zm21.72,17.88c3.4-4.74,1.64-9.25-.43-13.38-2.84-5.66-7.26-9.51-14.26-10.47,1.49,9.31,4.68,14.4,14.69,23.85Z"/>
      <path d="M190.8,26.86c11.87,2.98,18.13,10.86,19.76,22.61,1.2,8.65-2.57,15.53-9.77,18.79-6.55,2.96-13.82,1.19-19.7-4.99-5.86-6.17-9.9-13.13-10.43-21.98-.32-5.27-2.2-5.96-6.39-2.92-6.15,4.46-9.96,10.65-11.42,17.98-3.82,19.11-.52,37.12,9.4,53.87,2.51,4.24,6.05,7.56,10.41,9.89,2.83,1.51,6.03,1.32,9.12,1.63,1.85,.18,3.39,1.22,3.29,3.25-.09,2-1.73,2.81-3.53,3.16-2.47,.48-4.8-.16-7.1-.97-9.18-3.22-16.66-8.61-20.81-17.6-8.47-18.34-12.72-37.14-6.6-57.33,3.11-10.25,8.67-17.92,18.41-22.43,3.77-1.75,7.55-3.38,10.1-6.98,9.75-13.78,24.49-19.14,40.02-21.51,12.53-1.91,25.6-2.57,37.61,3.75,19.55,10.28,31.96,39.15,25.81,60.58-1.29,4.48-1.3,8.58-.52,13.17,2.25,13.37,2.73,26.81-1.32,40.04-4.68,15.28-13.75,25.38-30.68,26.41-.86,.05-1.06,.65-.26,2.13,15.27,5.88,27.72,16.79,39.45,28.64,25.32,25.61,47.91,53.57,70.81,81.31,12.96,15.7,26.38,31.09,41.98,44.42,30.62,26.16,65.13,46.67,98.78,68.41,4.89,3.16,9.83,6.62,16.36,4.95,1.18-.3,2.75,.35,3.96,.93,2.65,1.27,4.72,3.13,3.84,6.47-.75,2.85-3.14,3.49-5.69,3.47-4.66-.05-8.7-1.99-12.62-4.29-20.84-12.28-41.57-24.69-61.75-38.11-35.45-23.57-66.86-51.3-93.37-84.61-20.24-25.44-41.09-50.33-63.55-73.88-15.24-15.98-31.55-30.04-53.62-35.65-2.31-.59-4.59-1.6-6.65-2.81-1.76-1.04-3.36-2.61-2.82-5.05,.45-2.04,2.33-2.13,3.93-2.78,6.06-2.47,12.33-1.19,18.49-1.12,12.23,.14,20.26-5.56,24.86-16.69,4.52-10.92,4.34-22.33,3.38-33.73-.53-6.26-2.15-7.03-7.99-4.34-7.49,3.46-15.31,4.46-23.3,3.33-9.99-1.41-13.23-8.68-8.21-17.42,6.52-11.36,20.33-15.84,32.32-10.52,2.14,.95,3.91,3.01,6.62,2.36,2.17-10.23,.67-19.64-4.23-29.86-7.71-16.07-20.33-23.67-38.15-23.31-11.25,.23-22.02,2.24-32.17,7.06-4.57,2.17-9.27,4.45-11.62,9.07,1.37,2.91,3.76,2.72,5.61,3.18Zm-7.28,6.08c-3.87,.25-6,2.42-5.75,5.88,.55,7.73,2.78,14.98,8.96,20.25,3.24,2.76,6.87,4.86,11.3,2.45,4.09-2.22,5.55-5.92,5.58-10.36-.08-9.96-10-18.87-20.1-18.23Zm57.31,36.13c-4.42,4.22-3.64,8.07,2.08,9.82,8.19,2.51,15.47-.61,22.43-4.42,2.74-1.5,2.08-4.06,.32-6.1-2.83-3.29-6.45-4.94-10.01-4.74-6.15,.16-10.95,1.74-14.82,5.44Z"/>
      <path d="M905.3,636.1c18.03,12.41,34.95,26.06,48.17,43.77,6.89,9.23,12.48,19.18,15.29,30.39,3.17,12.65-1.84,21.59-13.97,26.33-4.95,1.93-10.08,2.2-15.28,2.45-7.7,.37-7.98,.44-8.14,8.4-.37,18.34-9.77,30.47-25.73,38.12-4.99,2.39-10.34,3.8-15.9,4.55-17.49,2.36-34.57-.28-51.36-4.63-25.15-6.52-49.46-15.58-73.08-26.38-3.08-1.41-8.88-2.31-6.45-7.27,1.76-3.6,6.24-1.08,9.29,.38,13.13,6.27,26.72,11.42,40.42,16.25,23.22,8.19,46.79,14.72,71.69,15.51,11.76,.37,21.58-3.92,30.64-10.54,7.64-5.57,11.81-13.44,12.99-22.81,1.15-9.17-.96-12.82-9.19-17.5-7.22-4.1-14.22-8.45-18.21-16.32-1.81-3.58-3.83-6.71-.22-10.23,3.39-3.29,7.36-3.26,12.1,.44,6.27,4.91,12.59,9.98,16.17,17.24,3.1,6.29,7.76,7.8,14.3,7.66,21.65-.45,28.16-10.43,19.25-30.16-6.97-15.44-17.57-28.51-30.16-39.23-35.35-30.09-75.78-51.85-118.82-68.9-7.41-2.94-15.1-4.98-22.86-6.8-1.35-.32-2.7-1.11-2.61-2.78,.11-2.04,1.56-3.12,3.42-3.12,2.04,0,4.11,.36,6.12,.78,8.83,1.84,17.3,4.81,25.68,8.1,16.78,6.59,32.81,14.69,48.45,23.61,4.18,2.38,8.37,6.22,13.11,5.8,12.58-1.12,22.87,4.63,33.38,9.74,28.09,13.64,53.11,32.4,79.77,48.41,19.98,12,38.04,26.44,55.02,42.28,9.87,9.21,19.43,18.75,26.95,30.08,4.42,6.66,8.58,13.44,9.69,21.58,1.24,9.02-1.68,12.76-10.82,14.03-3.14,.43-6.19,.02-9.28-.45-11.06-1.68-21.4-5.52-31.47-10.23-2.48-1.16-5.21-2.56-6.89,1.34-4.9,11.35-14.58,11.49-24.58,9.99-6.18-.93-12.02-3.3-17.01-7.28-1.67-1.33-3.11-3.14-1.73-5.32,1.35-2.14,3.55-1.74,5.56-.84,2.21,.99,4.35,2.13,6.56,3.13,4.12,1.87,8.41,3.25,12.97,3.35,6.45,.13,9.3-2.05,11.32-8.33,2.83-8.81,3.57-9.14,12.27-5.18,5.67,2.58,11.28,5.27,16.95,7.85,6.08,2.77,12.55,3.82,19.17,4.11,9.96,.44,11.83-2.24,7.89-11.61-3.52-8.38-8.73-15.74-14.64-22.56-13.87-16.01-29.33-30.51-46.41-42.86-30.55-22.1-63.06-41.29-95.14-61.1-5.96-3.68-12.34-7.02-19.79-9.16,.49,4.3,3.26,4.62,5.13,5.9Zm-2.79,77.01c1.96,4.03,4.95,7.04,9.34,8.5-2.08-4.04-4.72-7.36-9.34-8.5Z"/>
      <path d="M677.57,804.08c12.31,4.28,22.94,8.1,33.66,11.67,9.18,3.06,18.44,5.86,27.68,8.73,1.65,.51,3.35,.9,5.04,1.21,18.74,3.38,28.4-7.13,24.12-25.92-3.65-15.98-14.33-27.31-24.96-38.71-19.66-21.11-44.45-34.81-69.54-48.1-30.36-16.09-62.73-27.32-94.77-39.35-20.72-7.78-41.37-15.75-62.19-23.26-23.12-8.33-47.2-13.4-70.78-20.17-1.63-.47-3.42-.58-5.12-.52-1.38,.05-2.72,.72-3.13,2.27-.54,2.03,.59,3.33,2.26,4.07,1.24,.55,2.66,.72,4,1.04,49.6,11.81,97.03,30.1,144.68,47.83,29.2,10.87,58.09,22.3,85.87,36.49,29.26,14.94,55.98,32.99,76.16,59.5,4.89,6.42,8.66,13.32,10.27,21.29,2.69,13.29-3.31,19.63-16.53,16.19-16.02-4.17-32.04-8.51-47.28-15.24-5.69-2.51-11.51-4.77-17.37-6.84-3.14-1.11-6.68-3.5-9.8-.84-3.28,2.8-.98,6.39-.06,9.63,.57,1.99,1.22,3.97,1.64,6,1.4,6.72-.6,9.14-7.46,7.97-4.72-.81-9.34-2.54-13.81-4.34-6.32-2.55-12.02-6.15-19.46-2.1-3.3,1.8-8.1-.05-12.2-.83-23.09-4.38-45.76-10.39-68.38-16.7-31.98-8.93-64.1-17.34-96.03-26.42-27.21-7.74-53.86-17.29-80.67-26.31-18.99-6.39-38.23-12.07-57.24-18.41-9.17-3.06-18.07-6.93-27.12-10.38-1.68-.64-3.74-.73-4.59,1.02-.82,1.68,.32,3.39,1.84,4.4,4.65,3.08,9.78,5.22,15.03,6.95,28.24,9.33,56.51,18.55,84.79,27.75,22.02,7.17,44,14.48,66.12,21.33,31.38,9.73,63.3,17.53,95.04,25.93,22.72,6.01,45.3,12.66,68.48,16.76,10.86,1.92,21.54,4.99,32.76,4.7,2.64-.07,5.37,1.19,7.98,2.06,3.65,1.23,7.36,1.93,11.21,1.78,9.43-.38,13.12-4.86,11.56-14.05-.34-2.02-.83-4.01-1.69-8.08Z"/>
      <path d="M839.28,546.56c5.15,2.59,9.39,4.87,13.75,6.87,7.15,3.29,14.68,4.28,22.24,1.95,10.17-3.12,13-10.94,7.85-20.29-4.86-8.84-12.47-14.79-21.07-19.4-8.82-4.73-17.92-8.99-27.07-13.05-4.83-2.14-7.76-4.46-7.72-10.57,.05-7.25-3.58-11.1-10.74-11.4-27.79-1.18-55.36-.2-81.16,12.15-1.24,.59-2.5,1.18-3.6,1.98-.84,.61-1.48,1.66-.72,2.67,.57,.75,1.47,1.6,2.33,1.71,3.22,.45,6.05-1.11,8.92-2.24,22-8.62,45.03-10.1,68.3-9.91,.69,0,1.38,.04,2.07,.12,3.47,.37,7.57,.46,7.31,5.31-.28,5.13-4.55,4.16-7.91,4.07-5.55-.14-11.1-.28-16.29,2.13-2.89,1.34-5.73,3.13-5.41,6.81,.39,4.4,4.09,5.39,7.57,5.63,6.27,.43,12.44-.59,18.17-3.3,3.63-1.72,7.2-2.34,10.97-.63,13.77,6.27,28.38,10.84,40.32,20.76,3.5,2.91,6.86,5.84,9.15,9.75,3.39,5.79,1.42,9.92-5.32,11.15-4.13,.75-8.28,.5-12.24-1.09-6.09-2.45-12.17-4.88-17.37-9.1-2.11-1.71-4.52-3.3-7.06-4.19-3.08-1.08-5.53,.17-5.77,3.81-.12,1.7,.23,3.44,.42,5.15,1.02,9.24-1.06,11.15-10.09,8.64-6.35-1.77-12.23-4.69-17.8-8.27-10.17-6.55-20.39-13.02-30.66-19.42-3.81-2.37-7.75-4.54-11.73-6.62-1.52-.79-3.45-1.24-4.71,.49-1.55,2.15-.29,3.9,1.33,5.35,1.03,.91,2.17,1.72,3.34,2.44,14.43,8.87,28.79,17.85,43.35,26.48,4.42,2.62,9.29,4.65,14.17,6.29,13.09,4.38,18.17,1.73,22.88-12.22Z"/>
      <path d="M229.91,688.45c2.6,3.47,2.54,7.06,3.49,10.33,2.61,8.93,8.87,14.58,17.05,18.32,2,.92,4.36,.8,5.56-1.23,1.39-2.37-.53-3.93-2.37-4.89-11.5-6.03-15.42-16.13-15.53-28.37-.02-2.4,.03-5.03-2.76-6.16-2.76-1.11-4.51,.86-6.36,2.39-.27,.22-.51,.47-.77,.69-12.62,10.75-14.35,10.41-20.33-4.9-5.46-13.96-7.99-28.66-9.33-43.47-4.45-49.51-1.9-98.72,7.07-147.61,.8-4.34,3.3-9.17-1.98-13.82-2.35,3.81-3.1,7.48-3.77,11.06-6.21,33.35-9.93,66.94-10.19,100.9-.16,21.1,1.07,42.12,3.77,63.04,1.42,11.01,4.29,21.7,8.15,32.1,1.07,2.89,2.54,5.68,4.19,8.29,6.96,11.04,9.75,11.67,20.74,5.07,.87-.52,1.81-.93,3.36-1.73Z"/>
      <path d="M740.48,543.85c-6.14,.19-11.47,2.23-15.6,6.9-1.87,2.11-3.79,4.5-1.64,7.3,2.25,2.93,5.1,1.59,7.31-.12,5.77-4.49,11.74-5.89,18.01-1.41,2.48,1.77,4.45,4.27,6.68,6.4,2.02,1.93,4.17,4.2,7.06,1.71,2.37-2.04,2.27-4.76,1.16-7.59-2.88-7.33-13.06-13.23-22.98-13.19Z"/>
      <path d="M208.9,457.87c2.89-3.18,2.64-7.16,3.55-10.65,2.79-10.67,5.25-21.43,8.99-31.84,.68-1.89,1.36-4.34-1.51-5.1-1.95-.52-3.04,1.2-3.89,2.72-2.21,3.94-3.73,8.15-4.77,12.54-1.84,7.72-3.7,15.43-5.48,23.16-.79,3.42-1.09,6.78,3.11,9.18Z"/>
      <path d="M328.5,67.01c.11,3.47-.23,7.19-1.34,10.88-.58,1.93-.81,4.04-.77,6.06,.05,2.22,1.27,3.96,3.63,4.32,1.84,.28,3.6-.56,4.35-2.16,3.77-8.06,4.41-16.54,2.3-25.1-.61-2.46-3.04-3.83-5.76-3.16-2.31,.57-3.18,2.49-3.06,4.76,.07,1.37,.39,2.72,.64,4.41Z"/>
      <path d="M112.38,72.16c0,4.01-.13,7.44,.05,10.86,.11,2.16,1.17,4.16,3.54,4.35,2.44,.2,3.87-1.72,4.05-3.84,.63-7.5,1.01-15.02,1.36-22.54,.07-1.42-.8-2.61-2.2-3.16-1.85-.73-3.26,.19-4.61,1.34-4.58,3.89-1.54,9.05-2.19,12.99Z"/>
      <path d="M84.72,74.85c.37,4.9,.61,9.38,1.1,13.83,.2,1.85,1.52,3.08,3.49,3.13,2.01,.05,3.39-1.24,3.68-2.99,1.45-8.63,.48-17.17-1.53-25.6-.34-1.43-1.69-2.17-3.19-1.98-1.53,.19-2.55,1.31-2.7,2.72-.42,3.75-.6,7.54-.85,10.9Z"/>
      <path d="M347.69,70.93c1.82,4.09,.59,8.57,.88,12.95,.14,2.1,.82,4.16,3.43,4.25,2.39,.08,3.84-1.54,4.17-3.68,.78-5.06,1.14-10.2-.28-15.19-.77-2.72-2.42-5.2-5.82-4.33-3.03,.78-2.85,3.36-2.37,6.01Z"/>
      <path d="M657.44,542.38c-12.78-.11-19.58,8.81-26.43,17.56-1.09,1.39-1.15,3.26,.17,4.77,1.74,1.98,3.68,1.42,5.51,.2,2.01-1.33,3.84-2.96,5.9-4.18,9.28-5.49,18.65-7.22,27.91,.01,2.72,2.12,5.53,3.43,8.24,.61,2.75-2.86,1.06-5.9-.96-8.33-5.27-6.34-11.75-10.58-20.34-10.64Z"/>
    </g>
  </g>
</svg>