<?xml version="1.0" encoding="UTF-8"?>
<svg id="Layer_2" data-name="Layer 2" xmlns="http://www.w3.org/2000/svg" viewBox="0 0 97.63 97.63">
  <defs>
    <style>
      .cls-1 {
        fill: #1e1e1e;
      }
    </style>
  </defs>
  <g id="Layer_1-2" data-name="Layer 1">
    <path class="cls-1" d="M14.05,28.47c.34-1.55,1.12-1.95,2.59-1.47,13.5,4.35,24.17,12.39,31.84,24.35,.48,.75,.95,1.52,1.43,2.28,.96,1.52,1.37,1.5,2.34-.11,2.66-4.41,5.8-8.43,9.66-11.88,10.36-9.22,22.23-13.76,35.73-13.53v-4.86c0-12.84-10.41-23.25-23.25-23.25H23.25C10.41,0,0,10.41,0,23.25v51.13c0,12.84,10.41,23.25,23.25,23.25h51.13c12.84,0,23.25-10.41,23.25-23.25V40.22c-11.38-.25-22.51,4.42-30.42,13.38-5.83,6.61-9.28,14.36-9.77,23.29-.18,3.32-.2,3.32-3.58,3.41-2.31,.06-4.62,.05-6.92,.16-1.36,.07-1.93-.37-2.03-1.81-1.2-18.54-13.67-33.73-30.57-39.54-2.52-.86-2.7-1.18-2.03-3.74,.59-2.29,1.23-4.58,1.74-6.89Zm3.78-16.04c3.1-2.51,8.64-2.93,12.05,.51,1.27,1.06,2.51,2.04,3.12,3.57,.11,.27,.34,.6,0,.83-.27,.18-.46-.14-.68-.25-2.57-1.29-5.1-2.68-7.91-3.46-2.02-.56-4.06-.66-6.14-.13-.35,.09-.84,.44-1.06-.03-.23-.5,.28-.76,.63-1.04Zm-.3,6.91c3.49-1.61,6.91-1.47,10.31,.12,3.88,1.83,6.13,5.01,7.48,8.97,.07,.2,.09,.43,.1,.65,0,.12-.08,.24-.22,.6-1.28-1.04-2.48-2.02-3.67-3-3.13-2.59-6.58-4.54-10.6-5.43-1.04-.23-2.09-.21-3.14-.23-.54,0-1.33,.17-1.41-.55-.08-.62,.64-.89,1.16-1.13Zm3.12,30.32c1,.38,2.04,.51,3.07,.69,.53,.09,1.34,.03,1.32,.76-.02,.63-.77,.79-1.32,.95-3.69,1.07-7.06,.43-10.17-1.66-3.57-2.38-5.32-5.87-6.06-9.98-.04-.21-.03-.44,0-.66,.01-.12,.11-.22,.3-.56,1.11,1.22,2.15,2.36,3.18,3.52,2.71,3.02,5.83,5.47,9.67,6.95Z"/>
  </g>
</svg>