<?xml version="1.0" encoding="UTF-8"?>
<svg id="Layer_2" data-name="Layer 2" xmlns="http://www.w3.org/2000/svg" viewBox="0 0 755.29 112.82">
  <g id="Layer_1-2" data-name="Layer 1">
    <g>
      <g>
        <path d="M137.85,72.26c1.16,8.81,8.81,15.17,21.23,15.17,5.53,0,12.52-1.78,16.98-4.89,1.32-.92,3.1-.76,4.24,.37l6.6,6.52c1.39,1.38,1.35,3.69-.17,4.92-7.55,6.14-18.32,9.1-27.95,9.1-24.56,0-39.14-15.17-39.14-37.99s14.73-37.27,37.84-37.27,38.71,14.73,35.97,44.05h-55.61Zm38.71-14.59c-1.16-9.24-8.38-13.87-18.49-13.87-9.53,0-17.33,4.62-19.93,13.87h38.42Z"/>
        <path d="M228.84,12.79V30.51h17.93c.95,0,1.72,.77,1.72,1.72v11.73c0,.95-.77,1.72-1.72,1.72h-18.07v30.77c0,6.79,3.76,10.11,9.24,10.11,2.02,0,4.27-.47,6.36-1.24,1.2-.44,2.52,.16,2.91,1.37l3.5,10.7c.38,1.15-.25,2.39-1.4,2.8-4.18,1.47-7.93,2.13-12.53,2.26-15.46,.58-25.57-8.23-25.57-26v-30.77h-11.57c-.95,0-1.72-.77-1.72-1.72v-11.73c0-.95,.77-1.72,1.72-1.72h11.57V14.19c0-1.15,.86-2.11,2-2.23l13.14-1.4c1.33-.14,2.48,.9,2.48,2.23Z"/>
        <path d="M276.64,72.26c1.16,8.81,8.81,15.17,21.23,15.17,5.65,0,12.84-1.86,17.27-5.1,1.13-.82,2.7-.65,3.69,.33l7.2,7.11c1.21,1.19,1.17,3.19-.14,4.28-7.57,6.34-18.53,9.41-28.32,9.41-24.56,0-39.14-15.17-39.14-37.99s14.73-37.27,37.84-37.27,38.71,14.73,35.97,44.05h-55.61Zm38.71-14.59c-1.16-9.24-8.38-13.87-18.49-13.87-9.53,0-17.33,4.62-19.93,13.87h38.42Z"/>
        <path d="M362.39,31.91l1.06,6.69c5.49-8.81,12.86-10.11,20.08-10.11,6.51,0,12.79,2.25,16.85,5.47,.9,.71,1.15,1.98,.62,3.01l-5.73,11.04c-.66,1.28-2.31,1.76-3.5,.95-2.88-1.96-5.93-2.98-10.56-2.98-9.24,0-17.77,4.91-17.77,18.06v35.24c0,1.28-1.04,2.31-2.31,2.31h-13c-1.28,0-2.31-1.04-2.31-2.31V32.19c0-1.01,.82-1.82,1.82-1.82h12.94c.9,0,1.66,.65,1.8,1.54Z"/>
        <path d="M427.72,10.29c0,13.72-20.8,13.72-20.8,0s20.8-13.72,20.8,0Zm-19.21,22.68V98.68c0,1.6,1.3,2.89,2.89,2.89h11.83c1.6,0,2.89-1.3,2.89-2.89V32.97c0-1.6-1.3-2.89-2.89-2.89h-11.83c-1.6,0-2.89,1.3-2.89,2.89Z"/>
        <path d="M496.89,101.58c-1.35,0-2.44-1.09-2.44-2.44v-34.82c0-10.77-5.85-18.97-16.98-19.07-10.24-.09-18.4,8.61-18.4,18.85v35.04c0,1.35-1.09,2.44-2.44,2.44h-12.59c-1.35,0-2.44-1.09-2.44-2.44V32.67c0-1.35,1.09-2.44,2.44-2.44h11.13c1.24,0,2.28,.92,2.42,2.15l.9,7.53c7.22-7.08,14.44-10.69,23.4-10.69,16.76,0,30.19,12.57,30.19,34.95v34.97c0,1.35-1.09,2.44-2.44,2.44h-12.74Z"/>
        <path d="M586.41,30.37h11.32c1.59,0,2.87,1.29,2.87,2.87V98.71c0,1.59-1.29,2.87-2.87,2.87h-11.1c-1.49,0-2.74-1.15-2.86-2.63l-.65-7.77c-4.04,8.38-15.17,12.42-23.11,12.57-21.09,.14-36.69-12.86-36.69-37.84s16.32-37.41,37.12-37.27c9.53,0,18.63,4.48,22.68,11.56l.42-7.12c.09-1.52,1.35-2.7,2.87-2.7Zm-45.46,35.53c0,14.91,11.32,23.2,24.59,21.43,24.35-3.25,24.3-39.6-.07-42.73-13.24-1.7-24.53,6.41-24.53,21.3Z"/>
        <path d="M632.95,3.35V98.84c0,1.51-1.23,2.74-2.74,2.74h-12c-1.51,0-2.74-1.23-2.74-2.74V3.35c0-1.51,1.23-2.74,2.74-2.74h12c1.51,0,2.74,1.23,2.74,2.74Z"/>
        <path d="M667.61,10.29c0,13.72-20.8,13.72-20.8,0s20.8-13.72,20.8,0Zm-19.21,22.53V98.84c0,1.51,1.23,2.74,2.74,2.74h12.14c1.51,0,2.74-1.23,2.74-2.74V32.82c0-1.51-1.23-2.74-2.74-2.74h-12.14c-1.51,0-2.74,1.23-2.74,2.74Z"/>
        <path d="M740.97,30.37h11.58c1.51,0,2.74,1.23,2.74,2.74V98.84c0,1.51-1.23,2.74-2.74,2.74h-11.35c-1.42,0-2.61-1.09-2.73-2.51l-.66-7.89c-4.04,8.38-15.17,12.42-23.11,12.57-21.09,.14-36.69-12.86-36.69-37.84s16.32-37.41,37.12-37.27c9.53,0,18.63,4.48,22.68,11.56l.43-7.24c.09-1.45,1.28-2.58,2.74-2.58Zm-45.34,35.53c0,14.91,11.32,23.2,24.59,21.43,24.35-3.25,24.3-39.6-.07-42.73-13.24-1.7-24.53,6.41-24.53,21.3Z"/>
      </g>
      <path d="M16.2,33.08c.39-1.79,1.29-2.24,2.98-1.7,15.56,5.02,27.87,14.28,36.71,28.08,.56,.87,1.09,1.76,1.64,2.63,1.11,1.75,1.58,1.72,2.69-.12,3.07-5.08,6.68-9.72,11.14-13.69,11.94-10.63,25.64-15.86,41.19-15.6v-5.61C112.56,12.26,100.56,.26,85.75,.26H26.81C12,.26,0,12.26,0,27.06v58.95c0,14.81,12,26.81,26.81,26.81h58.95c14.81,0,26.81-12,26.81-26.81V46.62c-13.12-.28-25.95,5.09-35.07,15.43-6.73,7.62-10.7,16.56-11.26,26.85-.21,3.82-.24,3.83-4.13,3.93-2.66,.07-5.33,.05-7.98,.18-1.57,.08-2.23-.43-2.34-2.09-1.38-21.38-15.76-38.89-35.24-45.59-2.9-1-3.11-1.36-2.35-4.31,.68-2.64,1.42-5.28,2-7.94Zm4.36-18.49c3.58-2.89,9.96-3.38,13.89,.59,1.46,1.23,2.9,2.35,3.6,4.11,.12,.31,.39,.69-.01,.96-.31,.21-.53-.16-.78-.29-2.97-1.49-5.88-3.09-9.12-3.99-2.33-.64-4.68-.76-7.07-.15-.4,.1-.97,.51-1.23-.03-.27-.57,.32-.88,.72-1.2Zm-.34,7.96c4.03-1.86,7.97-1.7,11.89,.14,4.48,2.11,7.07,5.77,8.63,10.34,.08,.24,.11,.5,.11,.75,0,.13-.09,.27-.25,.69-1.47-1.2-2.86-2.32-4.24-3.46-3.6-2.98-7.58-5.24-12.22-6.26-1.2-.26-2.41-.24-3.62-.26-.63-.01-1.53,.2-1.63-.64-.09-.72,.74-1.03,1.34-1.31Zm3.6,34.96c1.15,.44,2.35,.59,3.54,.8,.62,.1,1.54,.03,1.52,.87-.02,.72-.89,.91-1.52,1.09-4.26,1.24-8.13,.49-11.73-1.91-4.11-2.75-6.13-6.76-6.99-11.51-.04-.24-.03-.51,0-.76,.02-.13,.13-.25,.35-.64,1.28,1.41,2.48,2.72,3.67,4.05,3.12,3.49,6.72,6.31,11.15,8.01Z"/>
    </g>
  </g>
</svg>