<?xml version="1.0" encoding="UTF-8"?>
<svg id="Layer_2" data-name="Layer 2" xmlns="http://www.w3.org/2000/svg" viewBox="0 0 573.86 79.71">
  <g id="Layer_1-2" data-name="Layer 1">
    <g>
      <path d="M99.47,55.51c.89,6.77,6.77,11.65,16.31,11.65,4.32,0,9.8-1.41,13.21-3.87,.9-.65,2.15-.52,2.94,.26l5.42,5.35c.97,.95,.93,2.55-.11,3.42-5.81,4.83-14.2,7.17-21.68,7.17-18.86,0-30.07-11.65-30.07-29.19s11.32-28.63,29.08-28.63,29.74,11.32,27.63,33.85h-42.72Zm29.74-11.21c-.89-7.1-6.44-10.65-14.2-10.65-7.32,0-13.32,3.55-15.31,10.65h29.52Z"/>
      <path d="M169.38,10.49v12.95h12.77c1.28,0,2.32,1.04,2.32,2.32v7c0,1.28-1.04,2.32-2.32,2.32h-12.88v23.64c0,5.22,2.88,7.77,7.1,7.77,1.4,0,2.94-.29,4.4-.78,1.22-.4,2.53,.26,2.92,1.48l2.3,7.04c.39,1.21-.25,2.53-1.46,2.93-2.98,.99-5.73,1.45-9.05,1.54-11.87,.44-19.64-6.33-19.64-19.98v-23.64h-7.88c-1.28,0-2.32-1.04-2.32-2.32v-7c0-1.28,1.04-2.32,2.32-2.32h7.88V11.44c0-1.19,.9-2.18,2.08-2.31l8.89-.95c1.37-.15,2.57,.93,2.57,2.31Z"/>
      <path d="M206.11,55.51c.89,6.77,6.77,11.65,16.31,11.65,4.32,0,9.8-1.41,13.21-3.87,.9-.65,2.15-.52,2.94,.26l5.42,5.35c.97,.95,.93,2.55-.11,3.42-5.81,4.83-14.2,7.17-21.68,7.17-18.86,0-30.07-11.65-30.07-29.19s11.32-28.63,29.07-28.63,28.96,10.57,27.8,31.61c-.07,1.25-1.08,2.23-2.32,2.23h-40.57Zm29.74-11.21c-.89-7.1-6.44-10.65-14.2-10.65-7.32,0-13.32,3.55-15.31,10.65h29.52Z"/>
      <path d="M272.12,25.29l.69,4.36c4.22-6.77,9.88-7.77,15.42-7.77,4.78,0,9.4,1.58,12.52,3.88,.94,.69,1.26,1.94,.72,2.97l-4,7.72c-.63,1.21-2.15,1.62-3.3,.89-2.1-1.33-4.37-2.03-7.71-2.03-7.1,0-13.65,3.77-13.65,13.87v26.53c0,1.28-1.04,2.32-2.32,2.32h-8.89c-1.28,0-2.32-1.04-2.32-2.32V25.66c0-1.28,1.04-2.32,2.32-2.32h8.23c1.14,0,2.12,.83,2.3,1.96Z"/>
      <path d="M322.19,7.91c0,10.54-15.98,10.54-15.98,0s15.98-10.54,15.98,0Zm-14.76,17.53v50.28c0,1.28,1.04,2.32,2.32,2.32h8.89c1.28,0,2.32-1.04,2.32-2.32V25.43c0-1.28-1.04-2.32-2.32-2.32h-8.89c-1.28,0-2.32,1.04-2.32,2.32Z"/>
      <path d="M375.78,78.04c-1.28,0-2.32-1.04-2.32-2.32v-26.31c0-8.27-4.5-14.57-13.05-14.65-7.86-.07-14.14,6.62-14.14,14.48v26.47c0,1.28-1.04,2.32-2.32,2.32h-8.78c-1.28,0-2.32-1.04-2.32-2.32V25.54c0-1.28,1.04-2.32,2.32-2.32h7.71c1.18,0,2.17,.88,2.31,2.05l.64,5.39c5.55-5.44,11.1-8.21,17.98-8.21,12.87,0,23.19,9.65,23.19,26.86v26.42c0,1.28-1.04,2.32-2.32,2.32h-8.89Z"/>
      <path d="M444.22,23.33h8.47c1.28,0,2.32,1.04,2.32,2.32v50.06c0,1.28-1.04,2.32-2.32,2.32h-8.3c-1.21,0-2.22-.93-2.32-2.13l-.49-5.86c-3.11,6.44-11.65,9.54-17.76,9.65-16.2,.11-28.19-9.88-28.19-29.08s12.54-28.74,28.52-28.63c7.32,0,14.32,3.44,17.42,8.88l.32-5.36c.07-1.23,1.09-2.19,2.32-2.19Zm-35.04,27.3c0,10.43,7.21,16.65,16.2,16.65,21.31,0,21.31-33.18,0-33.18-8.99,0-16.2,6.1-16.2,16.53Z"/>
      <path d="M479.87,2.8V75.72c0,1.28-1.04,2.32-2.32,2.32h-8.78c-1.28,0-2.32-1.04-2.32-2.32V2.8c0-1.28,1.04-2.32,2.32-2.32h8.78c1.28,0,2.32,1.04,2.32,2.32Z"/>
      <path d="M506.5,7.91c0,10.54-15.98,10.54-15.98,0s15.98-10.54,15.98,0Zm-14.76,17.53v50.28c0,1.28,1.04,2.32,2.32,2.32h8.89c1.28,0,2.32-1.04,2.32-2.32V25.43c0-1.28-1.04-2.32-2.32-2.32h-8.89c-1.28,0-2.32,1.04-2.32,2.32Z"/>
      <path d="M563.07,23.33h8.47c1.28,0,2.32,1.04,2.32,2.32v50.06c0,1.28-1.04,2.32-2.32,2.32h-8.3c-1.21,0-2.22-.93-2.32-2.13l-.49-5.86c-3.11,6.44-11.65,9.54-17.76,9.65-16.2,.11-28.19-9.88-28.19-29.08s12.54-28.74,28.52-28.63c7.32,0,14.32,3.44,17.42,8.88l.32-5.36c.07-1.23,1.09-2.19,2.32-2.19Zm-35.04,27.3c0,10.43,7.21,16.65,16.2,16.65,21.31,0,21.31-33.18,0-33.18-8.99,0-16.2,6.1-16.2,16.53Z"/>
      <path d="M77.88,23.22h-9.7c-.94,0-1.79,.57-2.15,1.44l-6.95,16.87-8.32,18.08c.82-1.2-9.83-32.37-40.91-42.08-1.24-.39-2.56,.28-2.95,1.52l-2.49,8.03c-.37,1.2,.28,2.5,1.47,2.88,22.01,7.13,30.44,27.98,37.07,46.64,.3,.98,1.2,1.65,2.22,1.65h11.36c.93,0,1.78-.56,2.14-1.42l21.34-50.39c.65-1.53-.48-3.23-2.14-3.23Z"/>
      <path d="M10.57,5.6c2.79-2.25,7.76-2.63,10.82,.46,1.14,.95,2.26,1.83,2.8,3.2,.1,.24,.3,.54,0,.75-.24,.16-.41-.12-.61-.22-2.31-1.16-4.58-2.41-7.1-3.11-1.81-.5-3.65-.59-5.51-.11-.31,.08-.76,.39-.96-.03-.21-.45,.25-.69,.56-.94Z"/>
      <path d="M9.75,11.5c3.37-1.55,6.67-1.42,9.94,.12,3.74,1.76,5.91,4.83,7.21,8.65,.07,.2,.09,.42,.09,.63,0,.11-.08,.23-.21,.58-1.23-1.01-2.39-1.94-3.54-2.89-3.01-2.5-6.34-4.38-10.22-5.23-1.01-.22-2.01-.2-3.03-.22-.52,0-1.28,.17-1.36-.53-.07-.6,.62-.86,1.12-1.09Z"/>
      <path d="M9.74,37.81c.74,.28,1.5,.38,2.27,.51,.39,.07,.99,.02,.97,.56-.01,.46-.57,.58-.97,.7-2.73,.79-5.21,.31-7.51-1.22C1.86,36.59,.57,34.02,.02,30.98c-.03-.16-.02-.33,0-.49,.01-.09,.08-.16,.22-.41,.82,.9,1.59,1.74,2.35,2.6,2,2.23,4.3,4.04,7.14,5.13Z"/>
    </g>
  </g>
</svg>