<?xml version="1.0" encoding="UTF-8"?>
<svg id="Layer_2" data-name="Layer 2" xmlns="http://www.w3.org/2000/svg" viewBox="0 0 126.12 116.15">
  <g id="Layer_1-2" data-name="Layer 1">
    <g>
      <path d="m54.25,115.45c-6.72,0-13.44.18-20.14-.04-15.19-.49-23.95-7.99-26.45-23.02-2.12-12.7-3.75-25.48-5.53-38.24-.67-4.84-1.24-9.72-1.93-14.55-1.12-7.88,2.61-12.84,8.44-16.93,1.62-1.14,3.47-2.01,5.31-2.75,3.26-1.3,5.11-3.36,4.53-7.06-.06-.36-.04-.73-.05-1.09-.16-4.63,1.83-8.05,5.86-10.28,4.26-2.36,8.37-1.84,12.34.75,2.5,1.62,4.25,3.92,5.81,6.4,2.61,4.16,3.1,4.56,7.87,3.54,6.07-1.3,12.16-2.15,18.37-1.85,2.17.11,4.35.23,6.51.5,4.2.52,4.18.56,5.21-3.34.28-1.05.48-2.15.95-3.11,1.71-3.48,4.77-5.11,8.51-4.05,5.17,1.47,10.09,3.48,10.69,9.97.16,1.72,1.27,2.42,2.86,2.78,7.3,1.65,11.5,6.88,13.84,13.37,5.02,13.91,8.03,28.25,8.43,43.13.17,6.35,1.07,12.66-.4,18.96-.37,1.59-.74,3.19-1.11,4.78-2.38,10.25-8.82,16.39-18.99,18.77-4.25,1-8.54,1.89-12.9,2.04-11.43.41-22.79,2-34.25,1.98-1.27,0-2.54,0-3.81,0,0-.23,0-.47,0-.7Zm25.02-65.51s0,.04,0,.06c-5.45,0-10.89.03-16.34,0-16.91-.09-33.68,1.72-50.47,3.43-3.24.33-3.71.85-3.25,4.21.84,6.11,2.36,12.1,3.14,18.24.96,7.54,1.86,15.12,4.31,22.41,1.41,4.22,3.95,6.58,8.46,7.3,15.16,2.41,30.41,2.01,45.63,1.33,7.22-.32,14.39-1.75,21.68-1.68,5.54.05,10.79-1.39,15.82-3.6,2.87-1.26,5.37-3.02,6.64-6.11,2.53-6.14,3.75-12.57,3.42-19.15-.33-6.7-1.19-13.37-1.92-20.04-.63-5.78-1.39-6.39-7.17-6.39-9.99,0-19.97,0-29.96,0Zm5.21-8.92c2.91,0,5.81,0,8.72,0,5.09,0,10.17.06,15.26.01,4.34-.05,4.6-.46,3.95-4.85-.48-3.26-1.42-6.41-2.73-9.4-3.19-7.28-8.66-9.99-16.32-8.4-1.93.4-2.38,1.47-1.81,3.14.77,2.23,1.58,4.45,2.45,6.64,1.72,4.32,1.56,6.02-.75,7.09-2.1.97-6.69-.62-8.16-2.94-.58-.91-.98-1.95-1.3-2.99-.75-2.43-1.61-4.85-2.03-7.34-.47-2.8-2.04-4.06-4.67-4.49-4.85-.79-9.71-1.78-14.62-1.07-10.06,1.45-20.03,3.5-30.17,4.45-3.26.3-3.8,1.4-3.34,4.9.23,1.79.92,3.54.46,5.38-.7,2.82-3,3.71-5.33,1.95-1.91-1.44-3.42-3.21-3.93-5.7-.57-2.75-2.26-2.95-4.45-1.76-9.02,4.92-10.19,7.35-9.13,17.48.23,2.2,1.38,3.28,3.58,3.18,1.27-.06,2.55-.1,3.79-.33,23.32-4.32,46.91-4.95,70.53-4.95ZM29.24,15.04c4.2.04,5.9-.61,5.84-2.23-.09-2.52-3.07-6.07-5.19-6.18-2.27-.12-3.83,1.53-3.85,4.11-.03,3.39.63,4.28,3.2,4.3Z"/>
      <path d="m62.17,59.5c-.5-.73-.76-1.21-1.11-1.61-1.42-1.63-1.27-3.32-.12-4.98.95-1.36,2.3-1.73,3.83-1.11,2.02.81,3.87,2.55,3.26,4.47-1.44,4.5,1.57,4.47,4.32,5.41,7.5,2.57,15.45,4.02,22.17,8.62,3.82,2.62,6.91,5.8,8.25,10.43,1.59,5.5.67,10.4-3.25,14.64-3.94,4.26-8.81,5.48-14.38,4.2-5.41-1.25-10.07-3.86-14.26-7.54-3.3-2.91-3.46-2.73-6.09.81-6.83,9.18-21.15,10.45-29.36,2.48-2.5-2.43-3.29-5.56-2.27-9,.85-2.85,2.52-5.19,4.54-7.33,3.76-3.97,7.96-7.45,12.57-10.34,4.16-2.61,8.03-5.51,11.9-9.15Z"/>
      <path d="m92.75,58.68c0,2.41-1.4,4.06-3.42,4.02-2.78-.05-6.09-3.02-5.92-5.3.13-1.83,2.14-3.71,4-3.75,2.66-.05,5.34,2.47,5.34,5.03Z"/>
      <path d="m36.87,75.79c-.47,1.88-1.63,3.06-3.8,2.93-3.03-.19-5.81-2.71-5.46-4.92.3-1.97,2.32-3.46,4.36-3.21,2.21.27,5.08,3.24,4.9,5.21Z"/>
      <path d="m43.22,57.7c1.96.12,4.84,2.84,4.68,4.57-.18,1.91-1.43,2.84-3.31,2.78-2.51-.08-5.06-2.21-4.98-4.06.08-1.76,1.88-3.4,3.61-3.29Z"/>
    </g>
  </g>
</svg>