<?xml version="1.0" encoding="UTF-8"?>
<svg id="Layer_2" data-name="Layer 2" xmlns="http://www.w3.org/2000/svg" viewBox="0 0 63.89 79.4">
  <g id="Layer_1-2" data-name="Layer 1">
    <g>
      <path d="m24.81,26.3c-.62,4.17-1.45,9-2.02,13.85-.28,2.41-1.7,5.5.8,7.07,2.17,1.36,4.36-.96,6.33-2.1,2.19-1.26,4.35-2.57,6.27-4.29,1.75-1.57,3.19-.89,3.87,1.39.62,2.06-.34,3.54-1.64,4.87-3.08,3.16-6.72,5.58-10.8,7.18-6.72,2.63-12.05-.81-11.54-8.04.57-8.11,1.73-16.24,4.6-23.97.19-.51.38-1.02.62-1.5.36-.69.98-1.15,1.74-1.04.77.12,1.23.79,1.33,1.54.18,1.43.25,2.88.43,5.03Z"/>
      <path d="m55.4,79.4c-4.3.06-7.36-2.24-9.13-5.78-3.1-6.18-4.09-13.08-5.89-19.7-.23-.86-.05-1.85,1.04-2.22.99-.33,1.85.07,2.39.82,1.72,2.37,2.54,5.17,3.54,7.88,1.07,2.88,1.99,5.82,3.15,8.66.46,1.14,1.23,2.25,2.13,3.09,1.2,1.13,2.69.91,3.99.01,1.12-.77.84-1.87.48-2.93-1.04-3.08-2.11-6.15-3.14-9.24-.34-1.02-.73-2.07-.83-3.13-.11-1.28.14-2.64,1.54-3.17,1.44-.54,2.48.35,3.14,1.49.81,1.4,1.52,2.89,2.07,4.41,1.18,3.23,2.4,6.45,3.31,9.76,1.85,6.74-.74,9.99-7.8,10.07Z"/>
      <path d="m36.81,16.59c1.93.82,4.04,1.46,5.88,2.55,5.9,3.52,11.79,7.08,16.78,11.88,6.46,6.2,5.83,10.46-2.13,14.45-.81.4-1.64.76-2.48,1.1-2.26.92-3.9.08-4.98-1.93-.97-1.82.06-3.08,1.4-4.19.28-.23.59-.42.88-.64,4.65-3.54,4.6-3.48.02-7.53-4.49-3.96-9.48-7.24-14.29-10.77-.87-.64-1.74-1.29-2.49-2.05-.53-.54-.61-1.36-.14-1.98.29-.38.88-.52,1.54-.89Z"/>
      <path d="m6.35,25.66c3.87-.07,6.67,1.17,6.56,2.99-.19,3.2-3.24,2.8-5.23,3.63-.96.4-2.11.56-3.15.5-2.14-.13-4.72-2.38-4.52-3.9.3-2.34,2.35-2.4,4.05-2.83.86-.22,1.76-.31,2.29-.39Z"/>
      <path d="m63.89,5.41c-.05,1.9-4.34,6.98-6.09,7.43-1.32.34-2.03-.38-2.48-1.47-1.29-3.13,1.95-8.42,5.35-8.6,1.86-.1,3.02.91,3.22,2.63Z"/>
      <path d="m39.71,5.49c-.06,3.26-1.49,5.57-3.35,5.39-1.88-.19-3.46-2.7-3.46-5.51,0-3.03,1.54-5.42,3.47-5.36,1.89.06,3.39,2.53,3.34,5.49Z"/>
      <path d="m21.47,12.8c-.01,1.54-.98,2.22-2.42,2.22-2.46-.01-6.13-3.58-6.27-6.01-.1-1.66.9-2.27,2.36-2.27,2.37,0,6.13,3.6,6.33,6.06Z"/>
    </g>
  </g>
</svg>