<?xml version="1.0" encoding="UTF-8"?>
<svg id="Layer_2" data-name="Layer 2" xmlns="http://www.w3.org/2000/svg" viewBox="0 0 74.35 69.81">
  <g id="Layer_1-2" data-name="Layer 1">
    <g>
      <path d="m58.11,43.51c2.36,10.74-1.33,19.88-8.49,23.42-6.45,3.18-12.55,1.34-17.9-2.11-3.33-2.14-5.01-2.8-7.79.55-2.13,2.58-5.58,3.87-9.01,4.32-8.22,1.08-12.93-5.81-9.8-15.09,3.88-11.49,10.71-21.02,20.71-28.15,5.17-3.69,10.49-1.56,15.36.06,8.83,2.94,14.3,9.6,16.92,17Zm-11.5,20.62c3.29-.37,6.77-2.96,7.83-7.6,2.6-11.36-1.63-20.37-11.71-26.04-6.27-3.52-14.03-3.4-18.19.57-6.94,6.63-12.13,14.5-15.69,23.4-2.59,6.45-1.1,11.43,3.52,12.47,5.45,1.23,13.27-6.67,11.92-12.03-1-3.95-1.82-7.93.11-11.8,1.85-3.72,4.63-5.86,9.02-4.22,4.28,1.6,4.11,4.8,2.92,8.39-.8,2.45-1.59,4.79-3.06,7.03-3.57,5.48-2.48,7.75,3.75,10.15,2.83,1.09,5.39.41,9.58-.32Zm-19.67-12.28c.44.87.63,1.98,1.17,2.17,1.16.42,1.65-.76,2.02-1.6,1.12-2.49,2.21-5,3.17-7.56.48-1.28.34-2.57-1.13-3.29-1.52-.73-2.53.2-3.31,1.22-2.09,2.74-1.52,6.04-1.91,9.05Z"/>
      <path d="m69.29,28.91c2.34-.09,5.01.03,5.05,3.47.04,3.48-6.7,8.52-10.96,8.27-2.63-.15-4.44-1.73-4.71-4.32-.36-3.51,5.29-7.45,10.61-7.42Z"/>
      <path d="m33.91,6.47c.94,4.76-1.44,9.86-5.18,10.55-5.35.99-6.49-3.45-7.71-6.9C19.59,6.08,22.79.76,26.39.11c3.73-.67,6.62,1.77,7.53,6.36Z"/>
      <path d="m13.36,29.43c.22,3.15-1.22,5.66-4.06,6.44-2.96.81-5.12-1.04-6.36-3.85-.52-1.18-1.38-2.23-1.75-3.43-.99-3.19-2.69-6.85,1.53-8.86,4.02-1.91,7.07.17,9.13,3.71,1.06,1.82,1.74,3.82,1.51,6Z"/>
      <path d="m52.42,19.87c-3.81.47-4.82-2.19-4.83-5.37-.01-4.65,4.12-8.78,8.33-8.91,3.73-.12,5.92,1.85,6.43,5.18.57,3.72-5.49,9.13-9.93,9.1Z"/>
    </g>
  </g>
</svg>