<?xml version="1.0" encoding="UTF-8"?>
<svg id="Layer_2" data-name="Layer 2" xmlns="http://www.w3.org/2000/svg" viewBox="0 0 795.89 269.9">
  <g id="Layer_1-2" data-name="Layer 1">
    <g>
      <path d="m225.21,247.98c1.5-.59,1.79-2.16,2.36-3.4,7.56-16.39,18.92-30.06,30.91-43.28,11.96-13.2,24.62-25.71,37.82-37.67,13.6-12.31,27.79-23.92,42.55-34.84,16.08-11.91,32.9-22.72,50.36-32.4,16.33-9.05,33.18-17.12,50.48-24.32,21.34-8.88,43.12-16.36,65.24-22.88,29.81-8.79,60.13-15.35,90.84-20.22,15.25-2.42,30.54-4.44,45.89-6,11.37-1.15,22.81-1.6,34.18-2.68,14.48-1.36,29.03-1.4,43.52-1.5,20.11-.14,40.29.02,60.24,3.53,3.21.56,6.55.35,9.63,1.63,1.17.48,2.44.83,3.48,1.51,2.26,1.46,3.83,4.97,2.9,6.51-1.41,2.35-3.77,1.96-5.88,1.48-28.29-6.43-57.05-5.6-85.69-4.91-24.47.58-48.95,1.98-73.27,5.19-21.96,2.9-43.87,6.08-65.6,10.48-28.87,5.85-57.3,13.33-85.18,22.75-21.16,7.15-41.84,15.52-62,25.25-34.88,16.82-67.11,37.72-96.79,62.48-26.25,21.9-51.11,45.29-72.02,72.54-8.5,11.08-14.68,23.33-18,36.96-.26,1.05-.48,2.14-.92,3.12-.93,2.08-2.48,3.12-4.81,2.31-3.12-1.07-5.67-2.37-7.19-5.91-6.16-14.36-11.31-29.1-17.24-43.54-5.04-12.26-10.52-24.27-16.89-35.94-6.95-12.73-14.08-25.34-21.48-37.81-5.37-9.06-11.79-17.32-19.04-25.03-5.95-6.32-11.94-12.58-18.47-18.27-8.52-7.43-18.1-13.13-28.4-17.91-9.48-4.4-19.12-7.8-29.4-9.48-13.34-2.19-26.79-2.25-40.2-1.3-5.79.41-11.15,3.1-16.42,5.58-2.3,1.08-4.61,2.16-6.93,3.19-1.31.58-2.55.38-3.38-.83-.95-1.4,0-2.44.98-3.26,5.24-4.36,11.27-7.22,17.73-9.27,12.76-4.07,25.8-3.12,38.84-2.26,2.71.18,5.44.2,8.12.56,13.77,1.88,26.71,6.25,39.23,12.34,12.17,5.92,23.32,13.25,33.6,21.92,4.55,3.84,8.6,8.32,12.62,12.74,10.77,11.84,20.32,24.53,28.26,38.52,7.07,12.45,14.38,24.78,21.1,37.42,6.48,12.2,11.19,25.21,16.27,38.03,2.28,5.74,4.43,11.53,6.67,17.28.25.64.51,1.36,1.4,1.58Z"/>
      <path d="m240.85,260.72c.17-.95.29-2.23.63-3.45,2.68-9.7,8.65-17,16.68-22.79.87-.63,1.86-1.22,2.89-1.46,1.89-.45,3.67.02,4.76,1.76,1.04,1.66.3,3.22-.9,4.43-1.79,1.79-3.76,3.41-5.64,5.12-5.48,4.99-9.78,10.69-11.18,18.21-.4,2.14-.92,4.52-3.98,4.11-2.02-.27-3.3-2.61-3.26-5.93Z"/>
      <path d="m38.64,81.58c1.66-.07,3.28-.02,4.7,1,1.46,1.04,3.32,1.89,2.79,4.16-.52,2.17-2.35,2.51-4.25,2.6-2.53.12-5.1,0-7.57.47-4.79.91-9.6,1.81-14.24,3.44-1.52.53-3.14.94-4.74,1.09-1.57.14-2.87-.74-3.29-2.29-.4-1.47.67-2.34,1.83-2.97,1.43-.78,2.86-1.58,4.36-2.19,6.57-2.65,13.34-4.58,20.41-5.29Z"/>
      <path d="m763.24.27c3.48-.51,6.88.2,10.31.42,1.93.12,3.57.78,4.41,2.64.67,1.48,1.42,3.03.44,4.65-1.03,1.7-2.67,1.55-4.34,1.34-6.29-.79-12.56-1.7-18.92-1.74-.72,0-1.46-.06-2.16-.22-2.07-.5-3.98-1.61-3.99-3.84-.01-2.27,2.2-2.6,4-2.86,3.4-.5,6.82-.98,10.25-.4Z"/>
      <path d="m19.04,61.91c-2.3-.2-3.93-.24-4.39-1.94-.42-1.56.94-2.27,2.09-2.76,6.64-2.85,13.22-5.89,20.19-7.9,3.14-.9,5.71.45,8.02,2.27,1.52,1.2,1.17,2.89-.54,3.38-8.68,2.5-17.42,4.79-25.37,6.94Z"/>
      <path d="m773.15,35.14c2.77.16,6.56.03,10.24,1.1,1.8.52,3.35,1.32,4.16,3.14.6,1.35,1.12,2.77.06,4.07-.9,1.11-2.21.99-3.5.76-6.05-1.04-12.11-1.9-18.28-1.73-.87.02-1.82-.17-2.63-.52-1.42-.62-2.34-1.76-2.21-3.38.12-1.47,1.3-2.07,2.56-2.45,2.8-.85,5.72-.68,9.59-.99Z"/>
      <path d="m206.36,252.57c.1,1.37-.21,2.21-1.06,2.71-1.04.61-2.1.43-3.05-.25-1.27-.91-1.63-2.36-2.02-3.74-1.82-6.46-4.34-12.65-7.04-18.77-.36-.82-.72-1.66-1-2.51-.23-.72-.12-1.47.61-1.86.74-.4,1.43.02,1.97.5.53.48,1.02,1.04,1.37,1.66,3.84,6.58,6.87,13.54,9.76,20.58.27.66.38,1.39.46,1.7Z"/>
    </g>
  </g>
</svg>