<?xml version="1.0" encoding="UTF-8"?>
<svg id="Layer_2" data-name="Layer 2" xmlns="http://www.w3.org/2000/svg" viewBox="0 0 62.12 53.29">
  <g id="Layer_1-2" data-name="Layer 1">
    <g>
      <path d="m13.29,26.92c-2.49-1.74-5.2-1.28-7.64-1.94-1.61-.44-3.83-.69-3.84-3.03-.01-1.99,1.85-2.27,3.35-2.81,4.49-1.63,9.01-3.26,13.84-3.01,2.7.14,3.98-1.06,4.88-3.32,1.31-3.32,2.7-6.62,4.7-9.59,2.88-4.27,5.25-4.32,8.05.04,1.82,2.83,3.08,5.99,3.82,9.3.79,3.52,2.67,4.87,6.39,4.11,2.68-.55,5.5-.85,8.28-.34,1.25.23,2.31.98,2.64,2.15.29,1.05-.72,1.71-1.53,2.27-.16.11-.33.23-.48.36-2.31,2.03-6.39,2.11-7.1,5.79-.59,3.02,1.66,5.62,2.1,8.55.12.78.37,1.54.49,2.33.33,2.07,2.03,4.55-.17,6.08-2.03,1.41-4.61.69-6.72-.71-4.3-2.85-9.49-4.15-13.44-7.55-1.67-1.44-2.74-.56-4.17.22-4.17,2.28-8.13,4.93-12.55,6.78-1.83.77-3.46.97-4.95-.42-1.37-1.29-1.03-2.96-.44-4.45,1.43-3.64,2.99-7.23,4.48-10.82Zm1.79,9.52c3.38-.82,5.91-2.31,8.34-4.05,2.22-1.58,4.07-1.57,6.95-.31,5.32,2.33,10.42,5.28,16.45,7.59.07-4.06-.89-7.29-2.05-10.38-1.1-2.94-.1-4.96,2.03-6.79.98-.84,2.79-.82,2.8-2.66-.75-.95-1.78-.62-2.69-.6-.98.02-2.01.03-2.94.3-5.14,1.5-5.55,1.3-7.27-3.76-1.23-3.62-2.53-7.23-3.95-11.28-3.27,3.08-4.48,6.51-6.37,9.46-1.47,2.29-3.02,3.51-5.95,4.1-3.62.72-7.76.56-11.05,3.2,1.48,1.9,3.14,1.12,4.62,1.23,1.86.14,3.98-1.08,5.46,1.12,1.59,2.37-.74,3.58-1.51,5.22-1.07,2.29-2.96,4.23-2.88,7.61Z"/>
      <path d="m31.09,49.65c.22,1.86.13,3.34-1.62,3.6-1.97.28-2.93-1.05-2.85-2.83.11-2.34-1.49-6.2,1.72-6.46,2.99-.24,1.88,3.95,2.75,5.69Z"/>
      <path d="m51.57,2.96c.02,1.53-4.75,5.6-6.42,5.43-.35-.04-.87-.21-1-.47-1.34-2.68,1.21-3.79,2.38-5.35,1.17-1.57,2.84-2.07,4.57-.63.26.22.33.67.48,1.02Z"/>
      <path d="m17.15,10.38c-.04,1.11-.64,1.53-1.49,1.57-.98.04-2.03-.03-2.54-1.04-1.02-2.05-2.26-4.08-1.88-6.51.11-.68,1.02-.75,1.45-.45,2.29,1.63,3.59,3.97,4.45,6.43Z"/>
      <path d="m0,33.36c1.02-3.71,3.24-5.3,5.66-6.59.88-.47,2.02.02,2.67.81.9,1.08-.11,1.81-.82,2.36-1.97,1.52-3.92,3.16-7.51,3.43Z"/>
      <path d="m52.69,31.18c3.24-1.94,6.2-1.46,9.44.89-3.65,2.87-6.55.67-9.44-.89Z"/>
    </g>
  </g>
</svg>