<?xml version="1.0" encoding="UTF-8"?>
<svg id="Layer_2" data-name="Layer 2" xmlns="http://www.w3.org/2000/svg" viewBox="0 0 476.57 141">
  <g id="Layer_1-2" data-name="Layer 1">
    <g>
      <path d="m453.79,45.31c-3.84-3.39-8.47-5.11-12.94-6.86-7.75-3.04-15.71-5.57-23.57-8.32-.85-.3-1.69-.66-2.51-1.04-3.47-1.6-3.91-2.4-2.86-5.21,1.11-3,2.53-3.58,6.01-2.38,13.69,4.72,27.45,9.25,40.3,16.08.79.42,1.68.64,2.55.97,1.16-1.58-.2-2.44-.75-3.42-1.5-2.69-3.15-5.31-4.6-8.02-.92-1.73-.91-3.55.62-5,1.42-1.34,2.99-.98,4.51-.1.31.18.69.29.96.51,6.22,5.19,10.77,11.71,14.62,18.73,1.09,1.99.09,3.97-1.75,5.19-1.81,1.2-3.83,2.06-5.67,3.21-5.24,3.27-10.31,6.73-14.09,11.8-2.67,3.58-4.05,3.89-6.61,2.07-4.41-3.14-5.12-5.34-2.74-9,1.39-2.13,3.16-3.96,5.09-5.64,1.08-.94,2.51-1.5,3.44-3.55Z"/>
      <path d="m100.62,81.5c-3.26-.18-5.54-4.49-3.6-7.14,2.35-3.21,4.83-6.38,7.6-9.22,2.39-2.44,2.31-4.74.68-7.3-3.31-5.18-5.99-10.77-10.13-15.43-2.52-2.84-2.38-4.23.02-6.41,2.29-2.08,4.05-2.05,6.39.89,3.72,4.67,7.22,9.52,10.22,14.72,2.06,3.57,2.36,3.65,5.65.92,7.84-6.48,16.12-12.3,24.89-17.45,1.25-.73,2.56-1.37,3.85-2.02,1.83-.91,3.62-1.97,4.97.79,1.37,2.8,1.24,4.44-1.24,5.96-6.96,4.26-13.89,8.55-20.31,13.6-2.99,2.35-5.78,4.94-8.77,7.3-2.05,1.62-2.41,3.34-1.24,5.66,1.56,3.07,2.98,6.23,3.77,9.6.75,3.19.19,3.95-3.21,5.04-3.41,1.08-4.33.76-5.59-2.18-.64-1.5-1-3.11-1.63-4.61-1.31-3.1-2.18-3.28-4.55-.69-1.83,2-3.39,4.24-5.11,6.35-.68.84-1.4,1.69-2.66,1.61Z"/>
      <path d="m105.32,141c-11.11-.34-19.08-6.65-21.94-17.12-.46-1.69-1.56-3.52.32-4.96,1.57-1.2,6.25-.34,7.49,1.28.54.71.9,1.57,1.31,2.37.41.8.81,1.62,1.19,2.44,2.1,4.58,5.51,8.14,10.55,8.3,5.24.17,9.09-3.14,11.52-7.81.75-1.44,1.31-2.98,1.98-4.45,1.36-3,2.33-3.11,4.54-.58,3.86,4.42,3.96,6.57.45,11.44-4.33,6.02-10.34,8.8-17.4,9.09Z"/>
      <path d="m357.89,6.53c6.69,1.36,13.85,2.5,20.84,4.33,7.86,2.06,15.97,3.15,23.59,6.13,3.49,1.37,4.01,2.46,2.74,5.59-.81,1.99-2.15,2.84-4.25,2.38-1.59-.35-3.19-.68-4.74-1.18-11.93-3.79-24.2-6.09-36.47-8.39-4.59-.86-5.85-1.98-5.97-5.01-.12-2.82,1.09-4.04,4.26-3.86Z"/>
      <path d="m241.69,11.3c-2.72.34-3.45-1.44-3.79-3.59-.35-2.24.17-4.05,2.72-4.49,2.68-.46,5.37-.93,8.08-1.14,9.57-.73,19.16-1.37,28.74-1.98,2.17-.14,4.36-.14,6.53.02,3.53.26,4.42,1.38,4.36,4.78-.04,2.19-.9,3.41-3.2,3.47-3.63.09-7.26.38-10.89.34-9.84-.1-19.54,1.39-29.31,2.21-1.09.09-2.16.25-3.25.38Z"/>
      <path d="m341.62,12.24c-7.93-1.41-16.85-1.58-25.66-2.81-5.07-.71-10.16-.2-15.22-.77-1.96-.22-4.08-.22-5.02-2.52-1.43-3.5.36-6.2,4.34-5.95,4.71.29,9.4.7,14.12.9,9.42.39,18.74,1.89,28.08,3.13.54.07,1.09.13,1.6.3,2.52.83,3.53,2.68,3.16,5.55-.4,3.12-2.63,2.33-5.41,2.18Z"/>
      <path d="m202.07,16.29c.16,1.72-.65,3.02-2.3,3.8-.82.38-1.65.78-2.52,1.02-11.74,3.26-23.07,7.63-34.19,12.59-3.53,1.58-5.52.18-5.82-3.6-.19-2.38,1.53-3.14,3.16-3.87,5.47-2.43,10.91-4.97,16.51-7.09,6.78-2.57,13.52-5.27,20.66-6.76,3.4-.71,4.54.22,4.48,3.91Z"/>
      <path d="m47.13,9.9c-.84-.2-2.09-.46-3.31-.8-6.68-1.82-13.54-2.57-20.4-3.21-5.49-.51-10.28,1.81-15.11,3.92-1.99.87-3.96,1.82-5.97,2.63-.83.34-1.86.48-2.27-.65-.28-.78.36-1.34.92-1.8C7.05,5.15,13.64,1.4,21.6,1.02c9.15-.44,18.11.84,26.86,3.52,1.38.42,3.75.34,3.3,2.74-.39,2.09-2.24,2.66-4.63,2.62Z"/>
      <path d="m81.79,105.89c1.01-6.66,3.47-13.04,6.9-19.07.91-1.6,1.91-3.19,4.25-1.93,2.54,1.38,3.82,3.46,3.19,5.56-.15.51-.46.98-.7,1.47-2.43,4.89-4.28,9.92-4.95,15.42-.45,3.69-4.2,5.15-7.31,3.17-1.7-1.08-1.37-2.78-1.39-4.62Z"/>
      <path d="m129.88,108.63c-.74,2.12.5,5.34-1.8,6.3-2.14.9-3.34-2.16-4.98-3.43-2.28-1.76-3.3-4.05-3.42-6.98-.14-3.41-.82-6.79-1.11-10.2-.26-3.09,1.47-4.65,5.81-5.51,3.1-.61,3.14,1.91,3.42,3.69.83,5.33,1.4,10.71,2.08,16.13Z"/>
      <path d="m65.22,10.67c1.18.45,2.58.83,3.85,1.48,6.42,3.32,12.58,7.05,18.22,11.6,1.24,1,2.85,1.93,1.63,3.94-1.18,1.96-4.23,3.18-6.06,2.26-1.27-.64-2.39-1.61-3.5-2.52-5.03-4.14-10.24-7.99-16.03-11.01-1.34-.7-3.7-1.03-3.22-3.02.52-2.16,2.86-2.44,5.1-2.73Z"/>
      <path d="m226.52,5.55c2.99-.31,4.21.76,4.63,2.83.43,2.1.38,4.18-2.17,4.77-5.44,1.24-10.92,2.35-16.41,3.37-2.07.38-3.44-.69-3.9-2.81-.48-2.19-.07-3.98,2.26-4.82,5.3-1.91,10.95-2.18,15.6-3.34Z"/>
    </g>
  </g>
</svg>