<?xml version="1.0" encoding="UTF-8"?>
<svg id="Layer_2" data-name="Layer 2" xmlns="http://www.w3.org/2000/svg" viewBox="0 0 45.45 44.88">
  <g id="Layer_1-2" data-name="Layer 1">
    <g>
      <path d="m42.93,33.33c.04,8.22-5.66,13.01-13.59,10.78-3.56-1-6.64-1.09-9.97.27-1.87.77-3.91.41-5.91.46-5.78.17-8.78-5.52-7.64-10.21,1.96-8.06,6.46-14.62,13.5-19.07,5.08-3.21,14.1-1.2,18.33,3.79,3.39,3.99,5.25,8.66,5.27,13.97Zm-22.53-1.34c-.1-3.81,1.46-6.85,4.03-7.96,2.07-.89,3.98-.4,5.51,1.1,2.36,2.3,2.44,5.13,1.41,8.06-.42,1.19-1.05,2.31-1.49,3.5-.82,2.24.04,3.48,2.33,3.5,3.03.02,5.3-2.4,5.47-6.26.18-4.08-1-7.96-3.07-11.41-2.37-3.94-10.71-5.78-14.06-3.19-5.03,3.9-8.28,9.15-10.09,15.16-1.3,4.32,1.02,6.71,5.45,6.18,4.58-.54,5.51-1.87,4.77-6.75-.11-.72-.19-1.44-.26-1.94Z"/>
      <path d="m34.2,9.33c.03-.36.05-.72.09-1.07.42-3.65,3.23-7.6,5.25-7.39,1.68.18,5.69,5.58,5.89,7.92.26,3.03-2.45,5.86-5.69,5.94-3.05.08-5.45-2.27-5.54-5.4Z"/>
      <path d="m31.11,7.68c-.24,2.98-2.66,5.12-5.38,4.76-3-.39-5.81-4.3-5.51-7.65C20.47,2.01,22.59-.1,25.05,0c3.29.14,6.35,4.03,6.06,7.68Z"/>
      <path d="m7.87,7.3c.03-2.18.66-3.95,3.19-4.15,3.1-.24,6.92,4.21,6.76,7.76-.11,2.44-1.74,4.1-4.03,4.1-3.22,0-5.98-3.61-5.92-7.72Z"/>
      <path d="m0,16.28c.06-1.67.24-3.46,1.93-4.18,1.68-.72,3.17.31,4.37,1.46.78.74,1.49,1.59,2.03,2.52,1.54,2.62,1.26,5.05-.61,6.3-1.86,1.25-4.39.6-6.23-1.56-1.12-1.32-1.46-2.87-1.5-4.54Z"/>
    </g>
  </g>
</svg>