<?xml version="1.0" encoding="UTF-8"?>
<svg id="Layer_2" data-name="Layer 2" xmlns="http://www.w3.org/2000/svg" viewBox="0 0 504.91 200.45">
  <defs>
    <style>
      .cls-1 {
        fill: #1e1111;
      }
    </style>
  </defs>
  <g id="Layer_1-2" data-name="Layer 1">
    <path class="cls-1" d="m221.61,200.45c-20.97,0-38.17-5.34-53.94-16.46-9.48-6.68-18.59-15.49-28.67-27.73-9-10.93-17.98-23.61-28.7-39.28C79.85,72.44,18.41,78.06.3,80.85l-.3-1.98c18.4-2.83,80.84-8.53,111.95,36.97,40.03,58.56,65.97,91.17,133.33,80.6,27.68-4.34,48.09-15.86,60.52-28.32-2.74-2.96-5.04-6.03-6.91-9.09-5.91-9.69-7.29-19.44-3.59-25.44,1.88-3.06,5.92-6.56,14.51-5.85,7.48.61,11.93,5.18,12.2,12.52.29,7.91-4.31,18.09-13.5,27.81,12.81,13.07,34.5,23.64,64.55,21.32,37.92-2.93,68.01-21.22,80.49-48.92,13.07-29.02,5.48-65.21-21.33-102.26-10.15.91-20.88,1.18-32.25.81-22.09-.71-31.87-10.64-33.66-19.7-1.47-7.45,2.23-14.55,9.2-17.67,11.43-5.11,32.05.55,55.67,31.8.67.89,1.33,1.77,1.98,2.66,27.81-2.63,51.11-10.14,70.67-22.71l1.08,1.68c-19.55,12.57-42.77,20.15-70.39,22.91,26.7,37.33,34.12,73.85,20.85,103.3-12.78,28.38-43.49,47.1-82.16,50.09-30.7,2.37-52.93-8.46-66.1-21.88-12.75,12.78-33.49,24.52-61.53,28.92-8.54,1.34-16.5,2.02-23.98,2.02Zm86.07-70.79c-4.99,0-8.66,1.71-10.68,4.99-3.3,5.36-1.92,14.3,3.6,23.35,1.79,2.93,3.99,5.86,6.6,8.7,8.72-9.24,13.09-18.86,12.81-26.36-.23-6.31-3.91-10.07-10.36-10.6-.67-.06-1.33-.08-1.96-.08ZM383.86,1.97c-2.84,0-5.37.54-7.53,1.51-6.1,2.73-9.34,8.94-8.05,15.45,1.64,8.31,10.84,17.42,31.76,18.09,10.83.35,21.08.12,30.8-.7-.41-.55-.82-1.11-1.24-1.66C411.3,10.47,395.11,1.97,383.86,1.97Z"/>
  </g>
</svg>