<?xml version="1.0" encoding="UTF-8"?>
<svg id="Layer_2" data-name="Layer 2" xmlns="http://www.w3.org/2000/svg" viewBox="0 0 711.61 293.19">
  <g id="Layer_1-2" data-name="Layer 1">
    <g>
      <path d="m124.19,183.35c.76,7.24,3.05,13.15,5.04,19.14.63,1.89,1.39,3.74,2.09,5.6.84,2.25-.17,3.38-2.31,3.94-3.55.92-6.15-.24-7.86-3.93-2.76-5.95-4.24-12.33-5.72-18.68-1.56-6.66-1.5-6.66-8.51-7.55-1.25-.16-2.5-.41-3.73-.69-2.04-.46-3.24-1.63-2.82-3.87.44-2.32,1.84-3.45,4.25-3.15,1.44.18,2.87.39,4.31.59,2.37.32,3.41-.79,3.24-3.09-.1-1.44-.35-2.88-.45-4.32-.21-2.89-.42-5.78-.51-8.68-.07-2.18.58-3.61,3.23-2.62.83.31,1.78.44,2.67.41,2.87-.08,3.78,1.63,3.93,4.1.2,3.26.21,6.53.62,9.76.72,5.64,1.35,6.01,6.91,5.48,3.6-.34,7.22-.56,10.83-.82.72-.05,1.45-.09,2.17,0,2.24.26,2.89,1.94,3.23,3.81.38,2.12-.97,2.86-2.72,3.32-3.36.89-6.78,1.15-10.23,1.25-2.34.07-4.67.01-7.65.01Z"/>
      <path d="m458.93,204.44c.14,2.28-.76,3.67-1.86,4.88-9.78,10.73-19.47,21.55-30.15,31.41-2.89,2.66-3.88,2.6-5.94.44-2.96-3.1-3.34-5.41-.8-7.91,11.38-11.22,22.01-23.12,32.48-35.18,1.99-2.29,3.15-2.07,4.33.65.86,1.99,1.41,4.11,1.95,5.71Z"/>
      <path d="m573.2,71.7c-2.26-.86-3.39-2.95-4.57-4.96-.92-1.55-.11-2.75.97-3.85.38-.39.72-.82,1.12-1.18,10.74-9.72,21.82-19.01,34.51-26.15,3.62-2.04,4.17-1.91,5.72.76,2.32,4.02,2.23,5.73-.87,7.73-11.43,7.37-22.08,15.74-32.11,24.91-1.32,1.2-2.66,2.48-4.76,2.73Z"/>
      <path d="m565.47,78.4c-.06,1.98-.9,2.92-1.8,3.83-8.7,8.7-16.36,18.35-24.8,27.29-2.91,3.09-3.19,3.06-6.06.38-3.76-3.52-4.06-4.7-1.53-7.55,7.8-8.79,15.65-17.53,23.49-26.29.48-.54.95-1.17,1.56-1.49,1.81-.92,3.03-4.05,5.38-2.58,2.29,1.44,2.91,4.43,3.77,6.4Z"/>
      <path d="m308.82,287.01c-.07-2.18,1.25-3.47,3.65-4.3,3.8-1.32,7.84-1.48,11.7-2.05,10.33-1.54,19.9-5.56,29.89-8.13,3.97-1.02,4.54-.96,5.66,1.74,1.55,3.74,1.03,5.57-2.41,7.04-2.83,1.21-5.75,2.28-8.73,3.06-11.74,3.06-23.66,5.25-35.66,7.03-3.08.46-4.2-.77-4.09-4.39Z"/>
      <path d="m664.04,11.43c-.29-2.59,1.38-3.61,3.43-4.17,9.08-2.48,18.05-5.46,27.48-6.51,2.88-.32,5.77-.58,8.66-.73,2.46-.13,4.61.71,6.38,2.49,2.65,2.66,2.03,5.36-1.56,6.58-.68.23-1.41.34-2.13.41-11.98,1.02-23.6,3.71-35.01,7.41-.52.17-1.04.33-1.57.46-3.83.92-4.28.64-5.17-3.26-.2-.88-.34-1.78-.51-2.67Z"/>
      <path d="m493.62,163.45c-.09,1.44-.91,2.43-1.7,3.42-7.08,8.75-14.13,17.51-21.26,26.21-2.69,3.28-3.45,3.21-6.23-.04-3.33-3.9-3.52-4.92-.7-8.45,7.25-9.07,14.55-18.1,21.93-27.06,2.85-3.45,3.6-3.32,5.7.5.95,1.74,2.05,3.44,2.26,5.41Z"/>
      <path d="m527.17,121.38c.02,1.7-.93,2.6-1.72,3.59-6.67,8.38-13.34,16.76-20.02,25.13-.57.71-1.2,1.36-1.76,2.07-1.55,1.97-2.89,1.73-4.28-.23-.73-1.03-1.67-1.92-2.59-2.79-2.01-1.9-1.67-3.67-.04-5.68,7.32-9.02,14.57-18.1,21.86-27.14.57-.71,1.22-1.34,1.85-2,1.42-1.51,2.8-1.78,3.81.35,1.09,2.28,2.53,4.42,2.89,6.71Z"/>
      <path d="m409.82,250.85c.47,2.93-.94,4.1-2.37,5.26-3.52,2.87-7.42,5.18-11.35,7.4-6.6,3.74-13.22,7.47-20.2,10.48-1.63.7-3.76,2.31-5.13-.39-1.69-3.33-1.23-6.86.96-8.34,1.19-.8,2.52-1.42,3.85-1.99,9.19-3.96,17.54-9.32,25.61-15.16.29-.21.57-.46.9-.61,1.89-.88,3.56-3.39,5.69-2.28,2.27,1.18,1.26,4.31,2.05,5.63Z"/>
      <path d="m656.65,18.78c.24,3-2.13,3.94-4.31,4.75-6.64,2.49-13,5.56-19.4,8.59-2.29,1.09-4.59,2.16-6.86,3.3-4.2,2.1-5.25,1.89-7.03-1.52-2.08-3.99-1.76-5.24,2.11-7.31,9.28-4.97,18.97-9.08,28.7-13.08,4.85-1.99,6.88-.33,6.79,5.28Z"/>
      <path d="m219.5,81.31c-2.33.26-3.51-1.01-3.99-3.31-.97-4.68-3.1-8.82-5.71-12.84-3.6-5.56-8.8-7.84-15.02-8.53-1.08-.12-2.18-.02-3.27-.11-1.39-.11-3.12.45-3.98-1.07-.96-1.68.27-3.14,1.07-4.52,1.71-2.94,4.35-3.58,7.51-2.9,4.51.97,8.6,3,12.43,5.42,8.19,5.18,13.54,12.44,15.39,22.1.86,4.5.06,5.64-4.44,5.76Z"/>
      <path d="m211.14,274.11c4.07.05,7.71,1.88,11.56,2.82,8.25,2.02,16.41,4.43,24.92,5.26,4.29.42,5.06,1.41,4.63,4.94-.4,3.27-1.28,4.06-4.67,3.65-9.17-1.12-18.25-2.73-27.13-5.35-3.63-1.07-7.21-2.35-10.79-3.6-1.66-.58-3.69-.93-3.26-3.51.43-2.58,2.23-4.18,4.73-4.2Z"/>
      <path d="m225.7,94.19c-1.04,13.71-5.15,24.9-10.95,35.5-1.88,3.43-3.18,3.21-5.18-.38-1.55-2.79-2.4-5.47-.71-8.71,4.16-7.98,6.37-16.57,7.15-25.53.22-2.5.69-4.64,3.88-4.93,4.34-.39,5.94,1.07,5.82,4.05Z"/>
      <path d="m131.86,218.87c3.05-.37,5.16.87,6.78,3.48,5.1,8.23,11.59,15.22,19.28,21.13,3.28,2.52,3.75,3.74,2.36,5.63-2.4,3.25-5.41,3.87-8.38,1.29-5.6-4.86-11.27-9.69-15.79-15.63-2.52-3.31-4.9-6.73-7.24-10.17-.89-1.3-2.28-2.71-1.4-4.4.89-1.73,2.86-1.13,4.41-1.32Z"/>
      <path d="m289.44,293.19c-7.2-.83-14.41-.25-21.61-.26-1.61,0-3.21-.51-4.83-.65-2.63-.22-3.92-1.45-3.68-4.21.21-2.5,1.12-4.17,3.93-4.13,1.44.02,2.91-.14,4.32.07,7.7,1.13,15.4,1.07,23.12.31,1.97-.19,3.97.02,5.96.06,2.42.05,3.52,1.32,3.73,3.71.21,2.33-.49,3.78-2.87,4.44-2.67.74-5.36.67-8.08.67Z"/>
      <path d="m200.89,271.56c-.07,3.78-3.37,5.69-7.04,3.89-4.53-2.22-9.26-4.1-13.62-6.62-5.6-3.24-10.91-6.98-16.34-10.51-.47-.3-.77-.72-.75-1.34.09-2.21,5.64-5.24,7.63-4,9.05,5.65,18.49,10.6,27.89,15.62,1.13.6,2.32,1.13,2.22,2.95Z"/>
      <path d="m111.64,143.35c.86-10.34,2.23-19.09,5.02-27.55,1.17-3.55,2.2-4.09,5.56-3.48,4.12.76,4.86,1.79,3.58,5.94-2.31,7.47-3.47,15.14-4.41,22.86-.57,4.63-1.41,5.3-5.81,5.07-3.4-.18-4.02-.88-3.93-2.84Z"/>
      <path d="m178.02,54.55c.12,2.46-1.07,4.58-4.34,5.88-6.58,2.61-12.87,5.88-18.39,10.42-1.76,1.45-3.29,2.02-5.02-.23-2.59-3.38-3.1-5.22-.92-7.04,2.49-2.08,5.25-3.87,8.03-5.58,5.12-3.14,10.55-5.69,16.29-7.46,3.42-1.05,4.32-.26,4.36,4.01Z"/>
      <path d="m127.58,104.8c-.73-.21-2.12-.61-3.5-1.03-1.95-.59-2.69-1.95-1.89-3.77,3.66-8.33,7.74-16.43,13.85-23.32,1.57-1.78,3-1.5,4.63-.01,3.35,3.04,3.57,4.49.73,8.2-4.01,5.23-6.79,11.15-9.66,17.02-.73,1.5-1.39,3.03-4.16,2.92Z"/>
      <path d="m152.62,173.89c-.13-2.09,1.24-3.1,3.08-3.8,7.51-2.85,14.28-7.02,20.82-11.62,1.25-.88,2.58-2.38,4.23-.57,1.84,2.02,2.3,5.93.91,7.48-.36.4-.82.72-1.27,1.01-7.04,4.46-13.99,9.09-21.99,11.75-3.98,1.32-5.89-.05-5.78-4.26Z"/>
      <path d="m207.06,139.73c-.08,1.52-.7,2.41-1.36,3.28-3.71,4.93-8.09,9.25-12.63,13.38-2,1.82-2.99,1.55-3.97-1.05-1.96-5.2-3.23-4.37,1.46-8.73,3.32-3.09,6.03-6.71,8.8-10.28,3.12-4.03,4.38-3.87,6.65.73.47.96.78,1.99,1.04,2.68Z"/>
      <path d="m30.33,141.01c-.98-.09-1.64-.74-2.22-1.41-4.63-5.38-8.25-11.42-11.15-17.87-1.07-2.38.7-5.22,3.18-5.82,1.39-.33,1.99.64,2.55,1.53,2.41,3.82,4.75,7.69,7.15,11.51,1.25,1.99,2.7,3.86,3.83,5.91,1.19,2.14-1.13,6.22-3.35,6.15Z"/>
      <path d="m91.8,174.98c.11,2.5-1.27,3.9-3.69,3.15-6.2-1.92-12.33-4.06-18.43-6.28-1.29-.47-2.74-1.25-3.33-2.63-.73-1.69.17-3.18,1.18-4.47.97-1.24,2.28-.93,3.45-.35,5.52,2.73,11.36,4.56,17.2,6.43,1.99.64,3.61,1.73,3.62,4.15Z"/>
      <path d="m.02,65.97c-.14-4.18.7-8.27,1.16-12.4.19-1.68.87-3.1,2.65-3.76,2.4-.89,3.83-.07,3.98,2.51.09,1.44.09,2.92-.16,4.32-.83,4.67-.97,9.33-.12,14.01.16.88.13,1.8.09,2.7-.09,2.27-1.63,3.01-3.57,3.34-2.12.36-2.91-.92-3.38-2.65-.73-2.65-.55-5.38-.66-8.08Z"/>
      <path d="m40.22,143.61c1.41-.27,2.08.42,2.7,1.04,4.4,4.33,8.97,8.46,14.21,11.78,1.91,1.21,2.77,2.68,1.73,5.01-1.27,2.84-2.25,3.31-4.92,1.67-4.96-3.05-9.25-6.98-13.67-10.73-1.04-.88-1.9-1.99-1.1-3.28,1.08-1.75.4-3.84,1.05-5.48Z"/>
      <path d="m7.39,87.68c2.13-.33,3.39.49,4.11,2.58,1.43,4.1,3.05,8.13,4.61,12.18.61,1.59,1.24,3.27-.88,4.13-1.86.75-4.12,1.42-5.39-.75-2.94-5.03-4.76-10.57-5.89-16.25-.53-2.66,2.02-1.72,3.44-1.88Z"/>
      <path d="m17.18,21.82c-2.55,5.15-4.01,10.69-6.01,16.04-.47,1.26-1.37,2.06-2.72,2.37-2.31.54-3.67-.59-2.94-2.83,1.56-4.8,3.3-9.57,6.18-13.78,1.14-1.66,2.5-3.19,5.49-1.81Z"/>
    </g>
  </g>
</svg>