<?xml version="1.0" encoding="UTF-8"?>
<svg id="Layer_2" data-name="Layer 2" xmlns="http://www.w3.org/2000/svg" viewBox="0 0 136.31 236.25">
  <g id="Layer_1-2" data-name="Layer 1">
    <g>
      <path d="m131.45,217.54c-.15-12.21-3.27-23.89-6.13-35.63-3.28-13.5-8.28-26.33-14.41-38.76-.35-.71-.63-1.47-1.04-2.14-.93-1.53-3.29-3.37-.97-4.75,1.89-1.12,3.45,1.39,4.32,3.03,6.55,12.38,11.4,25.36,15.05,38.93,2.7,10.02,4.49,20.11,5.93,30.34,1.08,7.68.85,15.14-1.76,22.48-1.87,5.26-7.84,7.01-11.89,3.09-8.1-7.83-13.43-17.47-17.55-27.86-2.66-6.71-5.37-13.38-7.33-20.38-3.23-11.52-6.43-23.04-6.99-35.05-.15-3.32-1.35-3.93-4.06-3.19-3.27.89-6.46,2.13-9.77,2.78-22.9,4.51-48.65-7.07-61.65-26.71C.83,105.05-2.56,85.08,1.84,63.35,5.93,43.08,15.71,26.3,32.21,13.9,41.8,6.69,52.45,1.23,64.96,1.02c.79-.01,2.11-.54,2.24.87.03.31-1.2.89-1.92,1.1-8.15,2.39-16.5,3.98-23.94,8.66C23.14,23.09,11.63,39.02,5.95,59.8c-4.16,15.23-4.12,30.37.84,44.87,7.13,20.86,20.91,36.57,43.07,41.89,15.79,3.8,31.41,1.22,45.61-7.56,14.79-9.14,24.96-22.19,31.37-38.02,5.22-12.89,6.59-26.46,4.92-40.41-2.62-21.87-12.9-38.74-31.58-50.42-6.42-4.01-13.76-5.3-21.04-6.7-1.65-.32-4.46,0-4.11-2.18.36-2.22,2.87-.88,4.52-.71,14.71,1.46,27.17,7.97,37.06,18.51,11.12,11.85,17.86,26.2,19.2,42.65,1.06,12.97.72,25.91-4.14,38.2-5.84,14.78-14.19,27.88-27.36,37.3-3.89,2.78-8,5.36-12.3,7.44-2.84,1.37-1.15,3.06-.9,4.43,3.07,16.44,5.89,32.89,12.27,48.57,4.25,10.43,8.25,20.87,15.04,29.95,2.11,2.82,4.73,6.82,8.25,5.65,4.07-1.35,4.83-6.07,4.76-10.34-.03-1.78,0-3.57,0-5.36Z"/>
      <path d="m118.11,66.91c-.17-19.49-7.8-35.66-25.38-46.32-4.27-2.59-9.39-3.33-14.27-4.43-1.13-.25-2.49-.26-2.33-1.82.2-1.93,1.76-1.56,3.01-1.32,15.59,3.02,27.57,11,35.35,25.14,9.81,17.82,9.53,36.48,3.09,54.78-5.78,16.44-16.88,29.26-33.49,36.12-21.61,8.92-45.38,1.34-57.39-18.25-9.53-15.55-12.08-31.71-7.55-49.56,4.49-17.71,14.02-31.31,29.26-40.97,4.48-2.84,9.56-4.69,14.95-5.26.58-.06,1.19.15,1.79.23-.47.37-.89.81-1.4,1.1-3.92,2.24-8.43,2.96-12.37,5.41-22.56,14.03-31.81,34.55-30.71,60.58.64,15.12,6.13,27.88,17.62,37.66,17.65,15.02,41.8,11.66,58.27-3.06,10.82-9.68,16.68-21.78,20.5-35.33,1.31-4.66.31-9.36,1.04-14.72Z"/>
      <path d="m112.09,62.26c.05.29-.08,1.2-1.04,1.31-1.78.22-2.63-1.05-2.99-2.55-1.38-5.7-4.03-10.84-6.69-16.02-2.27-4.4-5.44-7.94-9-11.24-.63-.59-2.03-1.07-1.31-2.13.67-.98,1.74-.07,2.61.28,3.9,1.57,6.12,4.98,8.41,8.12,4.76,6.5,8.54,13.53,10,22.22Z"/>
    </g>
  </g>
</svg>