<?xml version="1.0" encoding="UTF-8"?>
<svg id="Layer_2" data-name="Layer 2" xmlns="http://www.w3.org/2000/svg" viewBox="0 0 138.69 100.74">
  <g id="Layer_1-2" data-name="Layer 1">
    <g>
      <path d="m58.24.07c13.07-.5,28.44,1.71,43.91,1.36,5.6-.13,11.26.52,16.83,1.28,9.37,1.28,16.59,5.19,17.78,19.13.82,9.58,1.28,19.2,1.8,28.81.72,13.21-1.89,26.03-4.78,38.8-1.55,6.88-5.9,10.65-13.02,11.03-2.17.12-4.38.4-6.52.2-16.13-1.54-32.29-1.11-48.43-.83-16.44.28-32.61-1.8-48.72-4.58-6.8-1.17-11.37-5.69-11.61-12.59-.36-10.41-3.03-20.46-3.93-30.73C.57,40.92-.08,29.85,0,18.77c.03-3.5,1.23-6.78,2.28-10.06.91-2.86,3.18-4.46,5.88-5.2,3.14-.86,6.37-1.7,9.6-1.86C30.46,1.01,43.13-.22,58.24.07ZM14.14,9.97c2,3.36,5.03,4.83,7.41,6.97,10.64,9.59,21.39,19.07,31.98,28.71,2.06,1.88,3.8,2.4,6.19.77,3.2-2.18,6.97-3.05,10.63-4.1,2.85-.81,5.9-1.04,8.51.44,3.45,1.95,6.94,3.85,9.84,6.73,3.35,3.34,6.01,6.86,5.55,11.85-.22,2.4,1.16,3.64,2.82,4.86,5.44,4,10.01,8.92,14.77,13.66,3.51,3.5,6.31,7.45,9.13,11.46,2.08,2.94,3.33,2.72,5.04-.44,1.15-2.11,1.61-4.43,1.92-6.78,1.49-11.34,3.17-22.67,2.7-34.14-.38-9.24-.98-18.47-.96-27.72,0-.95.33-2.25-1.11-2.69-.32.2-.72.33-.91.59-.84,1.18-1.7,2.36-2.41,3.62-6.12,10.96-13.23,21.24-21.22,30.91-.58.7-1.14,1.44-1.84,1.99-1.67,1.31-3.42,1.1-4.98-.2-1.39-1.17-.99-2.61-.19-3.94,1.68-2.79,3.07-5.88,5.21-8.27,8.52-9.52,13.5-21.56,22.31-30.85,1.39-1.46.66-3.02-1.31-2.71-3.4.54-6.44-.63-9.63-1.19-2.85-.5-5.76-.94-8.65-.98-14.7-.21-29.39-.11-44.08-1.16-13.06-.93-26.09,1.12-39.16,1.15-2.35,0-4.67.47-7.56,1.46Zm-5.94,2.99c-1.26,1.46-1.29,2.93-1.53,4.35-.81,4.86-.13,9.73-.17,14.58-.12,16.62,4.28,32.7,5.34,49.16.14,2.15-.35,5.11,2.51,6.12,2.83,1,4.18-1.61,5.88-3.08,7-6.04,12.92-13.28,20.34-18.84,3.53-2.65,6.49-5.52,8.54-9.6,1.29-2.56,1.68-3.98-.73-5.89-6.25-4.95-11.59-10.9-17.68-16.05-7.71-6.53-14.3-14.3-22.5-20.76Zm15.79,77.05c14.64,1.15,27.85,3.48,41.31,3.02,10.86-.37,21.69.83,32.54.92,5.28.04,10.61,1.54,15.82-.04.03-.52.1-.72.04-.87-4.11-9.58-11.77-16.37-18.76-23.68-1.26-1.31-2.67-.87-3.88.19-2.78,2.43-5.71,1.6-8.69.5-1.74-.64-3.07-1.88-4.55-2.92-3.83-2.71-4.07-2.65-7.42.85-4.41,4.61-9.52,5.82-15.31,3.42-1.82-.76-3.52-1.87-5.16-2.98-1.99-1.35-3.66-1.17-5.32.52-6.55,6.72-13.13,13.42-20.63,21.07Z"/>
      <path d="m98.1,37.87c-.45,4.39-2.66,7.1-5.54,6.81-2.85-.29-6.23-3.27-6.03-5.33.29-3.03,4.58-7.35,7.2-7.26,2.62.09,4.68,2.82,4.37,5.78Z"/>
      <path d="m63.38,38.7c.02,1.18-1.2,2.19-3.32,2.29-3.37.15-7.61-3.37-7.67-6.32-.05-2.49,1.92-4.54,4.36-4.53,3.05,0,6.45,3.88,6.64,8.57Z"/>
      <path d="m76.56,37.78c-3.59.13-6.68-1.99-6.8-4.67-.14-3,1.62-5.36,4.03-5.42,2.94-.07,6.66,3.61,6.72,6.65.04,2.05-1.45,3.34-3.95,3.43Z"/>
    </g>
  </g>
</svg>