<?xml version="1.0" encoding="UTF-8"?>
<svg id="Layer_2" data-name="Layer 2" xmlns="http://www.w3.org/2000/svg" viewBox="0 0 202.2 444.09">
  <defs>
    <style>
      .cls-1 {
        fill: #fff;
      }
    </style>
  </defs>
  <g id="Layer_1-2" data-name="Layer 1">
    <g>
      <path class="cls-1" d="m185.07,444.09H17.13c-9.44,0-17.13-7.68-17.13-17.13V17.13C0,7.68,7.68,0,17.13,0h31.38c.14,0,.27.06.37.16.09.1.14.24.13.38-.03.36-.05.69-.05,1.02v8.91c0,4.71,3.83,8.55,8.55,8.55h85.61c4.71,0,8.55-3.83,8.55-8.55V1.56c0-.33-.03-.66-.05-.98-.01-.14.04-.29.13-.4s.23-.18.37-.18h32.97c9.44,0,17.13,7.68,17.13,17.13v409.83c0,9.44-7.68,17.13-17.13,17.13ZM17.13,1C8.23,1,1,8.23,1,17.13v409.83c0,8.89,7.23,16.13,16.13,16.13h167.94c8.89,0,16.13-7.24,16.13-16.13V17.13c0-8.89-7.23-16.13-16.13-16.13h-32.43c.01.19.02.37.02.56v8.91c0,5.26-4.28,9.55-9.55,9.55H57.5c-5.26,0-9.55-4.28-9.55-9.55V1.56c0-.19,0-.37.02-.56h-30.84Z"/>
      <path class="cls-1" d="m41.19,38.51h-18.5c-.28,0-.5-.22-.5-.5s.22-.5.5-.5h18.5c.28,0,.5.22.5.5s-.22.5-.5.5Z"/>
      <path class="cls-1" d="m41.19,43.79h-18.5c-.28,0-.5-.22-.5-.5s.22-.5.5-.5h18.5c.28,0,.5.22.5.5s-.22.5-.5.5Z"/>
      <path class="cls-1" d="m41.19,49.08h-18.5c-.28,0-.5-.22-.5-.5s.22-.5.5-.5h18.5c.28,0,.5.22.5.5s-.22.5-.5.5Z"/>
    </g>
  </g>
</svg>