<?xml version="1.0" encoding="UTF-8"?>
<svg id="Layer_2" data-name="Layer 2" xmlns="http://www.w3.org/2000/svg" viewBox="0 0 203.2 445.09">
  <defs>
    <style>
      .cls-1 {
        fill: #fff;
      }
    </style>
  </defs>
  <g id="Layer_1-2" data-name="Layer 1">
    <g>
      <path class="cls-1" d="m185.57,445.09H17.63c-9.72,0-17.63-7.91-17.63-17.63V17.63C0,7.91,7.91,0,17.63,0h31.38c.28,0,.54.12.73.32s.29.48.26.76c-.03.35-.05.66-.05.98v8.91c0,4.44,3.61,8.05,8.05,8.05h85.61c4.44,0,8.05-3.61,8.05-8.05V2.06c0-.32-.02-.63-.05-.94-.02-.28.07-.57.26-.77.19-.2.45-.34.73-.34h32.97c9.72,0,17.63,7.91,17.63,17.63v409.83c0,9.72-7.91,17.63-17.63,17.63ZM17.63,2c-8.62,0-15.63,7.01-15.63,15.63v409.83c0,8.62,7.01,15.63,15.63,15.63h167.94c8.62,0,15.63-7.01,15.63-15.63V17.63c0-8.62-7.01-15.63-15.63-15.63h-31.91v8.97c0,5.54-4.51,10.05-10.05,10.05H58c-5.54,0-10.05-4.51-10.05-10.05V2h-30.32Z"/>
      <path class="cls-1" d="m35.08,34.23h-18.5c-.55,0-1-.45-1-1s.45-1,1-1h18.5c.55,0,1,.45,1,1s-.45,1-1,1Z"/>
      <path class="cls-1" d="m35.08,39.51h-18.5c-.55,0-1-.45-1-1s.45-1,1-1h18.5c.55,0,1,.45,1,1s-.45,1-1,1Z"/>
      <path class="cls-1" d="m35.08,44.79h-18.5c-.55,0-1-.45-1-1s.45-1,1-1h18.5c.55,0,1,.45,1,1s-.45,1-1,1Z"/>
    </g>
  </g>
</svg>