<?xml version="1.0" encoding="UTF-8"?>
<svg id="Layer_2" data-name="Layer 2" xmlns="http://www.w3.org/2000/svg" viewBox="0 0 163.04 99.78">
  <g id="Layer_1-2" data-name="Layer 1">
    <g>
      <path d="m52.15,97.79c-2.2-.11-4.32.28-6.05-.38-11.71-4.45-22.91-.12-34.25,1.71-1.28.21-2.55.46-3.83.6-3.12.33-6.31-.57-7.63-3.15-1.47-2.85,1.69-4.6,3.59-6.14,6.99-5.65,14.29-10.89,22.9-13.88,4.14-1.44,4.6-5.64,6.46-8.64,12.77-20.62,29.44-36.67,52.28-45.67,2.5-.99,5.31-1.41,8.01-1.64,4.28-.36,4.14-2.54,2.62-5.47-1.87-3.61-3.94-7.15-3.34-11.47.18-1.32-.59-3.11,1.53-3.59,1.75-.4,2.52.86,3.51,2,4.45,5.18,4.53,5.21,10.2,1.36,2.94-2,5.62-1.45,7.98.66,2.4,2.15,2.16,4.88.7,7.53-1.28,2.33-3.4,3.88-5.29,5.65-.9.83-2.99,1.08-2.53,2.49.43,1.32,2.37,1.35,3.8,1.53,11.92,1.55,21.36,7.63,29.15,16.41,7.08,7.98,12.49,17.11,17.51,26.5,1.67,3.12,3.97,5.8,3.57,9.71-.8,7.76-4.59,11.61-13.76,13.12-22.66,3.72-45.28,7.54-68.36,8.15-9.63.26-19.27,2.1-28.72,2.6Zm.29-3.27c3.07-.27,6.14-.5,9.2-.83,22.04-2.36,44.11-4.42,66.08-7.26,8.55-1.11,17.27-2.06,25.37-5.88,5.23-2.47,5.73-6.39,4.3-10.72-3.96-11.98-11.37-22.22-19.86-31.05-18.3-19.04-43.54-18.93-64.18-5.86-18.13,11.48-32.23,26.98-41.41,46.65-2.98,6.39.06,12.43,7.42,13.78,4.3.79,8.65,1.4,13.08,1.18Zm-44.84,2.11c6.29-1.38,12.74-2.78,19.18-4.21.97-.21,2.12-.6,1.64-1.86-1.09-2.83-.72-5.75-.81-8.65-.06-2.11-1.64-2.1-2.68-1.43-6.42,4.14-13.28,7.67-18.75,13.14-.61.61-2,1.16-1.4,2.19.33.56,1.68.52,2.82.81ZM114.18,7.42c-.08-.24-.12-.76-.4-1.1-.54-.67-1.26-.92-2.13-.49-3.08,1.54-3.86,4.53-4.68,7.47-.12.41-.08.87-.11,1.31.15-.01.3-.05.44-.03,1.35.15,6.85-5.38,6.88-7.16Z"/>
      <path d="m94.02,45.67c5.7.08,10.4-.71,11.78-7.09.24-1.09,1.14-2.94,2.49-2.47,1.41.49.74,2.24.3,3.41-1.3,3.47-.26,4.22,3.32,3.68,3.44-.52,6.94-2.05,10.52-.58,1.07.44,2.27,1.1,2.3,2.28.04,1.71-1.57,1.2-2.58,1.34-2.88.38-5.77,1.03-8.65.99-6.44-.09-8.48,3.8-9.25,9.27-.37,2.61.37,3.51,3.09,3.22,5.46-.57,10.95-.94,16.44-1.26,1.12-.07,3.04-.72,3.17,1.03.11,1.42-1.73,1.73-2.97,1.93-3.83.62-7.61,1.43-11.55,1.4-8.21-.07-8.64.54-9.31,8.57-.16,1.95,1.29,5.61-1.65,5.51-3.27-.12-2.97-4.08-2.37-6.34,1.66-6.3-1.3-6.54-6-5.28-1.4.37-2.88.57-4.33.59-4.44.06-6.76,2.13-7.04,6.65-.09,1.44.27,4.01-1.99,3.64-2.31-.38-4.09-2.55-3.23-5.12,1.58-4.7-.58-4.5-3.95-3.61-2.33.62-4.77.87-7.15,1.28-1.23.22-2.87.96-3.3-.77-.53-2.1,1.47-1.54,2.58-1.81,2.04-.49,4.11-1.4,6.14-1.35,7.46.2,8.61-4.97,9.58-10.55.56-3.19-1.67-2.15-2.98-1.99-4,.48-7.97,1.21-11.95,1.8-.77.11-1.76.31-2.03-.72-.25-.97.62-1.41,1.34-1.73,3.27-1.43,6.64-2.79,10.2-2.88,5.56-.14,9.69-1.87,11.22-7.73.41-1.56,1.28-3.48,3.23-2.9,2.28.68,1.13,2.8.62,4.08-2.42,6.1,2.86,2.44,3.96,3.53Zm2.29,3.5c-8.25.02-10.43,1.69-12.26,8.85-.71,2.8-.31,4.51,3.06,4.19,3.05-.29,6.1-.55,9.13-.93,3.66-.45,6.1-4.94,5.32-10.05-.57-3.7-3.68-1.32-5.25-2.07Z"/>
    </g>
  </g>
</svg>