<?xml version="1.0" encoding="UTF-8"?>
<svg id="Layer_2" data-name="Layer 2" xmlns="http://www.w3.org/2000/svg" viewBox="0 0 98.63 97.52">
  <g id="Layer_1-2" data-name="Layer 1">
    <path d="m55.72,97.44c-10.46.41-18.77-1.09-26.81-4.17-6.49-2.49-10.9-7.69-15.74-12.27-2.61-2.48-5.13-5.15-6.94-8.34C.67,62.83-1.24,52.29.79,41.24,4.73,19.89,20.41,4.49,41.74.63c4.69-.85,9.41-.94,14.03.33,7.12,1.95,14.46,2.99,20.98,7.1,8.82,5.55,15.16,12.9,18.31,22.77,3.87,12.13,5,24.35,1.37,36.91-3.57,12.39-11.98,20.02-23.16,25.03-6.1,2.73-12.41,5.25-17.55,4.67Zm-11.49-40.59c.12,2.53.21,5.06.38,7.59.09,1.36.55,2.32,2.21,2.54,5.4.71,10.81.91,16.25.53,1.87-.13,3.09-1.09,3.43-2.91,1.48-8,3.33-15.98,2.34-24.22-.48-3.99-1.22-4.92-5.29-5.73-3.36-.67-6.79-1.03-10.21-1.41-4.83-.54-5.81.09-6.76,4.77-1.27,6.21-2.41,12.44-2.35,18.83Zm-33.84-8.3c0,1.63-.05,3.26.01,4.88.06,1.51.55,2.87,1.98,3.63,5.94,3.15,12.21,5.45,18.6,7.45,1.57.49,2.43-.15,2.42-1.85-.02-8.91,1.16-17.65,3.39-26.29.87-3.38.32-3.71-3.34-4.6-5.12-1.25-10.06.35-15.08.67-3.93.25-6.08,2.51-6.87,6.43-.64,3.21-1.3,6.38-1.12,9.66Zm8.88-24.85c.55,1.21,1.06,1.38,1.61,1.37,5.4-.12,10.8-.21,16.19-.44,1.89-.08,3.5-.97,4.32-2.81,1.94-4.38,3.85-8.77,6.24-14.25-12.1,2.52-21.24,7.66-28.36,16.13Zm20.15,64.88c6.69,1.96,12.44,2.29,18.4.99,6.78-1.48,6.67-1.3,5.88-7.88-.33-2.73-1.5-3.78-4.07-3.97-3.06-.23-6.09-.73-9.15-.99-4.35-.37-4.9.31-4.16,4.84.93,5.69-.12,6.93-6.9,7.01Zm26.59-62.44c.49-3.69-1.05-6.73-1.44-9.94-.5-4.16-2.62-5.77-7.44-6.2-3.8-.34-3.53,2.91-4.33,5.1-.74,2.03-1.3,4.15-1.76,6.26-.39,1.8.14,3.34,2.22,3.63,4.09.57,8.1,1.97,12.75,1.15ZM13.15,64.21c2.14,8.69,14.24,20.22,22.09,21.75-.46-3.02-.94-6.03-1.37-9.05-.3-2.12-1.19-3.82-3.31-4.54-5.82-1.97-11.2-4.91-17.4-8.16Zm75.59-9.28c.94-5.64-4.98-8.27-7.66-12.69-.32-.52-1.33-.65-2.03-.28-.75.4-.69,1.19-.55,1.9.79,4.14.57,8.3.37,12.46-.11,2.17-.44,4.32-.54,6.49-.07,1.48.76,2.34,2.28,2.48,4.25.39,7.37-2.07,7.87-6.26.13-1.08.14-2.17.26-4.1Zm-16.87-40.12c-.17,4.3,1.72,6.81,2.08,9.58.85,6.47,5.77,7.89,11.83,10.3-3.13-8.27-6.06-15.08-13.91-19.87Z"/>
  </g>
</svg>