<?xml version="1.0" encoding="UTF-8"?>
<svg id="Layer_2" data-name="Layer 2" xmlns="http://www.w3.org/2000/svg" viewBox="0 0 122.05 115.99">
  <g id="Layer_1-2" data-name="Layer 1">
    <g>
      <path d="m58.92.05c11.92,1.52,23.57,3.89,33.61,11.14,1.04.75,2.17,1.24,3.36,1.72,4.93,2.02,9.18,4.91,12.68,9.07,10.51,12.45,15.59,26.38,12.65,42.79-.73,4.1-.94,8.29-1.47,12.43-.79,6.16-2.25,12.13-5.44,17.56-3.22,5.47-6.27,11.06-9.68,16.41-3.91,6.13-9.7,6.43-14.28.84-1.71-2.09-3.12-4.47-4.4-6.86-1.34-2.5-2.69-3.22-5.63-2.03-4.68,1.89-9.55,3.29-14.65,3.96-5.3.7-10.53.2-15.67-.47-8.64-1.12-17.37-3.07-24.91-7.35C7.81,89.47-1.48,77.67.19,55.62,1.55,37.67,11.92,24.78,24.22,13.06,32.07,5.58,41.44,1.13,52.37.14c2.19-.2,4.34-.15,6.55-.09Zm53.38,55.69c.26-5.77-.76-11.31-3.2-16.45-1.62-3.42-4.08-6.42-5.93-9.75-3.75-6.76-9.91-10.88-16.1-14.97-6.88-4.55-14.65-6.04-22.73-6.55-10.69-.68-20.59,1.39-29.23,8.03-8.47,6.51-15.05,14.65-20.38,23.85-2.68,4.62-4.36,9.64-4.85,14.91-1.37,14.87,3.63,29.1,19.36,36.16,4.67,2.1,9.34,3.88,14.31,5.06,12.73,3.04,25.05,3.34,36.82-3.67,5.04-3,9.33-1.61,12.53,3.31,1.09,1.67,2.06,3.42,3.18,5.08,1.65,2.43,2.62,2.41,4.4-.03.43-.58.67-1.3,1.1-1.88,9.65-12.87,9.79-28.08,10.72-43.09Z"/>
      <path d="m69.84,34.5c11.61.38,20.8,5.57,28.15,14.29,1.8,2.13,2.52,4.8,3.02,7.49.27,1.44.14,2.88-.45,4.27-2.03,4.75-11.24,9.53-16.38,8.43-4.5-.97-8.45-3.14-12.31-5.58-2.82-1.79-3.04-1.73-4.2,1.39-1.15,3.12-2.92,5.86-4.86,8.46-7.26,9.7-19.64,7.58-26.09.64-1.96-2.11-2.48-4.78-2.29-7.6.25-3.82.62-7.83,2.3-11.12,3.11-6.1,6.69-12.07,13.3-15.32,4.56-2.24,15.74-5.38,19.8-5.33Z"/>
      <path d="m28.57,44.55c2.57.09,5.96,3.57,5.96,6.13,0,3.73-3.23,8.04-6,8.03-3,0-6.96-4.36-6.74-7.4.22-3.12,3.97-6.85,6.79-6.76Z"/>
      <path d="m80.08,28.66c-.14,3.86-3.89,6.04-7.32,4.2-1.26-.68-2.47-1.5-3.3-2.74-1.5-2.24-1.23-5.02.69-6.91,1.86-1.85,3.85-1.95,6.31-.21,1.95,1.38,3.69,2.96,3.61,5.66Z"/>
      <path d="m54.72,29.54c.1,3.54-1.89,6.2-4.65,6.24-2.64.03-5.97-2.79-6.13-5.19-.19-3.04,2.98-6.51,6.05-6.58,2.69-.07,4.64,2.21,4.73,5.54Z"/>
    </g>
  </g>
</svg>