<?xml version="1.0" encoding="UTF-8"?>
<svg id="Layer_2" data-name="Layer 2" xmlns="http://www.w3.org/2000/svg" viewBox="0 0 91.81 103.76">
  <g id="Layer_1-2" data-name="Layer 1">
    <g>
      <path d="m50.15,12.3c3.32-2.38,5.97-5.18,9.58-6.57,4.56-1.76,9.1-4.44,13.81-.69,4.99,3.96,5.24,9.61,4.93,15.35-.04.71-.27,1.43-.52,2.11-.81,2.26.04,3.35,2.32,3.83,3.92.82,6.83,3.28,9.28,6.3,2.53,3.12,3.11,6.53.89,10.08-1.45,2.3-2.97,4.56-4.59,6.74-5.3,7.15-11.36,13.67-17.2,20.37-6.5,7.47-9.95,15.93-9.34,25.92.09,1.44.03,2.91-.09,4.35-.08.91-.5,1.84-1.58,1.89-1.04.05-1.66-.74-1.93-1.63-1.5-4.81-1.23-9.69-.33-14.54,1.36-7.36,5.29-13.48,9.95-19.12,6-7.28,12.19-14.41,18.29-21.6.35-.42.68-.85,1.04-1.26,5.55-6.49,4.11-9.78-3.97-13.3-2.08-.91-4.27-.69-6.44-.57-1.27.07-2.6.32-3.42-1.01-.86-1.39-.09-2.45.84-3.36,3.95-3.85,3.35-8.63,2.53-13.3-.79-4.5-3.54-6.11-7.95-4.95-6.02,1.58-10.93,4.81-14.29,10.16-.39.61-.69,1.28-1.04,1.92-.44.83-1.02,1.67-2.04,1.49-1.25-.22-1.61-1.32-1.7-2.46-.09-1.08-.05-2.2-.28-3.25-.84-3.77-2.18-7.28-5.37-9.82-2.25-1.79-4.5-2.15-7.04-.73-6.99,3.93-9.73,10.45-10.86,17.91-.27,1.78.92,3.04,1.98,4.31,1.44,1.73,2.32,3.7,2,6.02-.18,1.33-.82,2.4-2.14,2.92-1.42.56-2.48-.17-3.37-1.13-1.26-1.35-1.88-3.04-2.5-4.77-1.19-3.33-3.5-4.56-7.73-4.44-4.01.11-6.64,1.7-7.66,4.93-1.43,4.53-1.21,9.02,1.19,13.17,2.17,3.77,4.56,7.41,6.95,11.05,9.07,13.88,11.01,29.33,10.12,45.42-.02.36-.05.73-.1,1.08-.17,1.27-.27,2.75-2.03,2.64-1.28-.08-1.68-1.19-1.79-2.36-.16-1.81-.38-3.61-.5-5.42-.09-1.45-.2-2.91-.09-4.35,1.14-16.02-4.64-29.87-13.27-42.86C1.37,43.82-.66,38.51.19,32.37c1-7.17,5.45-10.99,12.64-10.53,1.26.08,2.5.4,3.75.62,1.68.29,2.8-.3,3.35-1.97.69-2.06,1.45-4.11,2.19-6.15,2.13-5.84,5.53-10.59,11.36-13.27,3.79-1.75,6.36-1.36,9.48,1.41,3.01,2.67,4.98,6.13,7.17,9.83Z"/>
      <path d="m60.16,57.94c.16,5.62-3.54,9.37-8.95,9.66-2.77.15-5.42-.58-7.94-1.64-2.77-1.16-5.51-1.65-8.48-.78-2.15.63-4.35.27-6.44-.45-5.33-1.83-7.46-6.82-4.79-11.74,3.85-7.11,10.19-11.13,17.71-13.52,1.23-.39,2.66-.58,3.7.22,5.47,4.16,11.42,7.89,14.11,14.71.53,1.34.84,2.76,1.07,3.54Zm-28.22,3c3.15.06,3.56-.39,3.44-3.79-.04-1.08-.21-2.19-.03-3.25.5-3.08,3.32-5.15,6.25-4.74,2.65.37,3.96,2.22,4.03,5.56.05,2.1-.7,3.88-1.87,5.57-.6.86-.51,1.68.45,2.3,2.23,1.44,7.65,1.49,9.35.07,2.4-2,2.72-5.33.81-8.96-2.48-4.71-6.53-7.67-11.19-9.96-1.07-.53-2.11-.58-3.12-.04-4.85,2.59-9.43,5.55-12.19,10.5-2.26,4.05-.6,6.66,4.08,6.74Z"/>
      <path d="m66.31,26.62c0,3.88-3.51,7.29-7.33,7.11-3.03-.14-5.55-2.6-5.64-5.5-.12-3.78,3.9-8.45,7.11-8.27,3.18.17,5.85,3.21,5.85,6.66Z"/>
      <path d="m18.01,46.43c-4.09-.34-7.9-4.63-7.6-8.55.22-2.84,2.69-4.79,5.71-4.52,3.81.34,7.39,4.46,7.2,8.28-.15,3.16-2.24,5.04-5.32,4.79Z"/>
      <path d="m32.09,25.36c-.05-3.64,2.34-7.28,4.73-7.56,2.54-.29,5.2,2.43,5.87,6.11.52,2.84-.01,5.44-2.19,7.48-1.36,1.28-2.95,1.32-4.52.4-2.56-1.52-3.6-3.95-3.89-6.43Z"/>
      <path d="m70.38,47.16c-3.54.02-5.81-1.97-5.76-5.03.06-3.19,3.51-6.45,6.85-6.48,2.98-.02,6.3,2.97,6.26,5.65-.04,3.03-3.57,5.84-7.36,5.86Z"/>
    </g>
  </g>
</svg>