<?xml version="1.0" encoding="UTF-8"?>
<svg id="Layer_2" data-name="Layer 2" xmlns="http://www.w3.org/2000/svg" viewBox="0 0 163.11 128.76">
  <g id="Layer_1-2" data-name="Layer 1">
    <g>
      <path d="M134.55,61.34c3.71-1.59,5.77-4.57,9.09-5.77,6.84-2.48,12.19,.88,10.78,7.87-1.94,9.6-5.08,19.1-16.42,21.75-3.25,.76-3.8,2.74-4.44,5.35-1.7,6.91-3.48,13.81-5.5,20.63-5.29,17.84-24.04,23.34-37.62,10.73-3.89-3.6-6.46-4.29-11.51-1.95-18.35,8.5-30.91-3.23-32.78-22.83-.19-1.97-.12-4.06,.34-5.97,1.27-5.3-1.11-7.77-5.51-10.75C23.42,68.53,10.57,52.43,1.75,33.17c-2.36-5.15-2.19-10.68-.34-15.89,1.64-4.65,5.61-6.6,10.34-7.94,4.26-1.21,10,.71,12.44-5.42,.7-1.77,3.06-.96,4.33,.44,2.25,2.48,3.09,5.42,2.38,8.72-.73,3.37-2.53,4.16-5.51,2.32-6.27-3.87-10.38-3.79-15.81,.03-5.32,3.73-4.44,8.73-2.95,13.84,1.6,5.5,3.57,10.84,7.61,15.12,7.61,8.08,12.93,18.11,21.56,25.34,3.75,3.14,7.88,5.64,12.13,7.98,5.15,2.83,9.77,2.11,13.92-2.2,9.47-9.84,15.72-21.58,20.17-34.3,2.06-5.9,3.54-12.02,4.87-18.14,1.56-7.11-.59-11.33-7.64-12.81-6.48-1.35-13.65-5.46-19.68,1.81-1.44,1.74-3.93,.96-5.31-.7-2.48-2.98-2.15-6.47-.45-9.6,1.12-2.06,3.9-2.39,5.11-.65,2.4,3.45,5.28,2.48,8.3,1.93,3.15-.57,6.26-.36,9.33,.4,15.51,3.83,19.55,10.43,16.24,26.11-3.65,17.33-11.14,32.82-22.23,46.57-4.02,4.99-8.6,9.28-15.63,9.16-2.4-.04-3.99,.78-3.97,3.28,.07,9.25,.9,18.32,7.99,25.33,4.34,4.29,18.51,2.19,21.42-3.02,1.17-2.1-.15-3.87-.54-5.74-1.38-6.61-1.07-13.13,1.59-19.31,1.33-3.09,3.31-6.42,7.5-5.9,3.7,.46,6.01,3.04,7.22,6.5,2.63,7.54,1.23,14.53-2.75,21.29-3.13,5.31-2.38,7.79,2.73,10.85,12.31,7.38,21.61,3.83,25.38-10.02,2.09-7.68,3.35-15.57,5.31-23.29,.87-3.42-1-5.48-2.77-7.61-4.29-5.16-5.57-11.09-4.82-17.56,.37-3.15,.94-6.53,4.57-7.53,3.56-.98,5.9,1.17,7.67,4.06,.89,1.45,1.87,2.84,3.1,4.7Zm-44.92,24.19c-4.56,5.77-4.65,10.69-2.44,17.7,3.72-6.19,5.34-10.88,2.44-17.7Z"/>
      <path d="M156.88,50.96c4.35,1.88,4.83,5.38,5.85,8.5,.42,1.3,.85,2.94-.91,3.56-1.73,.61-3.48,.15-4.19-1.73-1.18-3.13-2.27-6.34-.75-10.33Z"/>
      <path d="M117.94,44.82c-.07,4.12-2.26,6.64-5.8,9-1.94-6.27,3.96-6.26,5.8-9Z"/>
    </g>
  </g>
</svg>