<?xml version="1.0" encoding="UTF-8"?>
<svg id="Layer_2" data-name="Layer 2" xmlns="http://www.w3.org/2000/svg" viewBox="0 0 149.66 128.62">
  <g id="Layer_1-2" data-name="Layer 1">
    <g>
      <path d="M65.64,128.53c-5.91,.05-13.23-1-20.48-2.47-19.42-3.93-33.69-15.71-41.19-33.14C-3.49,75.61,.35,57.21,8.98,40.96,25.38,10.09,53.26,.25,86.58,0c28.95-.22,44.24,18.87,57.99,39.47,8.49,12.72,4.92,27.46-.33,40.78-10.8,27.34-47.58,50.03-78.6,48.28ZM80.22,5.26C52.45,6.73,28.03,17.79,13.78,45.92c-14.15,27.93-3.27,61.76,24.27,71.23,34.52,11.87,64.89,6.23,91.4-24.04,11.57-13.21,15.07-29.61,9.85-46.49-4.9-15.84-18.71-25.26-30.44-35.61-6.98-6.16-17.18-4.99-28.64-5.75Z"/>
      <path d="M79.54,11.1c30.85,.02,43.11,14.91,53.84,44.4,6.68,18.36-7.54,41.36-28.46,50.91-20.65,9.43-41.68,11.5-63.43,3.14-19.85-7.63-29.94-24.83-27.13-45.77,3.69-27.5,24.49-44.48,47.57-50.38,6.12-1.57,12.39-2.59,17.61-2.29Zm-13.48,97.47c15.87-.59,30.25-3.74,42.69-12.4,13.62-9.48,19.92-23.53,16.54-39.43-3.39-15.96-10.64-32.37-27.64-37.11-22.55-6.28-50.92-1.53-67.95,21.91-20.42,28.12-9.03,58.14,24.71,65.36,4.09,.88,8.31,1.2,11.65,1.67Z"/>
      <path d="M51.34,65.17c-3.26-2.27-6.8-1.67-9.99-2.53-2.11-.57-5-.91-5.02-3.96-.02-2.61,2.42-2.97,4.38-3.68,5.87-2.13,11.78-4.27,18.1-3.94,3.54,.18,5.21-1.38,6.38-4.34,1.72-4.34,3.53-8.65,6.15-12.54,3.76-5.58,6.86-5.65,10.52,.05,2.38,3.7,4.03,7.83,5,12.16,1.03,4.61,3.5,6.37,8.36,5.38,3.51-.72,7.2-1.11,10.83-.44,1.63,.3,3.03,1.28,3.46,2.81,.39,1.37-.94,2.23-2,2.97-.21,.15-.43,.3-.62,.47-3.02,2.65-8.35,2.76-9.29,7.57-.77,3.95,2.18,7.35,2.74,11.19,.15,1.02,.48,2.02,.64,3.04,.43,2.7,2.66,5.95-.23,7.95-2.66,1.84-6.02,.9-8.78-.92-5.63-3.72-12.41-5.42-17.58-9.87-2.18-1.88-3.58-.73-5.45,.29-5.45,2.98-10.63,6.45-16.41,8.86-2.39,1-4.53,1.27-6.47-.55-1.79-1.68-1.34-3.87-.58-5.81,1.86-4.76,3.9-9.45,5.86-14.14Zm2.34,12.44c4.42-1.08,7.72-3.03,10.91-5.3,2.9-2.07,5.33-2.05,9.09-.4,6.96,3.05,13.63,6.9,21.51,9.92,.09-5.31-1.16-9.53-2.68-13.58-1.44-3.85-.14-6.48,2.66-8.88,1.28-1.1,3.65-1.07,3.67-3.48-.98-1.24-2.32-.81-3.52-.78-1.29,.02-2.63,.03-3.85,.39-6.72,1.96-7.25,1.7-9.5-4.92-1.61-4.74-3.31-9.45-5.17-14.75-4.27,4.02-5.85,8.51-8.33,12.38-1.92,2.99-3.95,4.6-7.77,5.36-4.73,.95-10.15,.74-14.45,4.19,1.94,2.49,4.1,1.47,6.04,1.61,2.43,.19,5.21-1.41,7.14,1.46,2.08,3.1-.97,4.68-1.97,6.83-1.39,3-3.87,5.54-3.77,9.96Z"/>
      <path d="M74.62,94.9c.29,2.43,.18,4.37-2.12,4.7-2.57,.37-3.84-1.38-3.72-3.7,.15-3.05-1.94-8.11,2.25-8.45,3.9-.31,2.46,5.17,3.59,7.44Z"/>
      <path d="M101.41,33.83c.02,2-6.22,7.33-8.4,7.11-.46-.05-1.14-.27-1.31-.62-1.75-3.51,1.58-4.95,3.11-7,1.53-2.05,3.71-2.71,5.97-.83,.34,.29,.43,.88,.63,1.34Z"/>
      <path d="M56.38,43.54c-.05,1.45-.84,2-1.94,2.05-1.28,.06-2.66-.04-3.32-1.36-1.34-2.68-2.95-5.34-2.45-8.51,.14-.88,1.34-.99,1.89-.59,3,2.13,4.7,5.19,5.82,8.41Z"/>
      <path d="M33.96,73.6c1.34-4.85,4.23-6.94,7.4-8.62,1.16-.61,2.64,.03,3.5,1.05,1.18,1.42-.14,2.37-1.07,3.08-2.58,1.99-5.13,4.13-9.83,4.49Z"/>
      <path d="M102.86,70.74c4.24-2.54,8.11-1.91,12.34,1.17-4.77,3.76-8.56,.88-12.34-1.17Z"/>
    </g>
  </g>
</svg>