<?xml version="1.0" encoding="UTF-8"?>
<svg id="Layer_2" data-name="Layer 2" xmlns="http://www.w3.org/2000/svg" viewBox="0 0 125.6 80.17">
  <g id="Layer_1-2" data-name="Layer 1">
    <g>
      <path d="m50.34,76.74c-12.13-.95-24.07.1-35.87,3.03-3.12.78-6.25.31-9.31-.42-2.22-.53-4.46-1.46-5.05-3.89-.68-2.78,1.79-4.02,3.6-5.03,6.04-3.36,12.12-6.7,18.44-9.47,3.11-1.37,5.07-3.11,6.39-6.18,6.93-16.19,19.15-27.16,34.71-34.76,1-.49,2.03-.93,3.08-1.32q6.79-2.55,7.11-9.52C73.7,3.71,76.46.02,80.39,0c5.27-.03,8.49,4.71,7.88,9.59-.16,1.33,0,2.7-.23,4.01-.49,2.81.79,3.82,3.39,4.62,16.8,5.21,26.73,17.61,32.3,33.37,4.23,11.96,1.72,18.56-11.97,21.36-10.35,2.12-20.88,1.77-31.33,2.47-10.01.67-20.01,2.47-30.1,1.32Zm-7.03-4.28c0,.17.01.34.02.51,19.38-1.27,38.77-2.54,58.15-3.83,4.47-.3,8.77-1.34,13.06-2.7,3.96-1.25,5.56-4,4.99-7.61-1.61-10.15-4.06-20.02-12.58-27-.86-.71-1.79-1.35-2.58-2.13-10.83-10.67-23.61-12.21-37.12-6.83-20.14,8.02-31.25,24.39-38.61,43.89-1.5,3.99.46,5.46,3.96,5.65,3.56.2,7.14.04,10.71.04Zm-20.15-9.21c-6.73,3.59-13.11,6.8-19.14,12.09,7.04,2.59,12.77-.7,18.67-1.46.93-.12,1.36-1.25.96-2.13-1.18-2.58.97-5.21-.49-8.51ZM83.14,10.03c0-1.1.03-1.77,0-2.43-.08-1.56-.04-3.29-2.18-3.48-1.85-.16-2.84,1.06-3.35,2.64-.27.83-.56,1.81-.36,2.6.63,2.45-1.84,6.76,2.62,6.92,4.34.16,2.54-4.22,3.27-6.26Z"/>
      <path d="m103.43,55.99c-3.63,1.17-6.96,2.01-6.19,6.53.14.85-.15,1.91-1.25,1.96-1.47.08-2.89-.71-3-2.11-.21-2.69.43-5.57-3.84-5.32-4.42.25-9.51-1.45-11.83,4.4-.05.13-.37.15-.79.3-.57-.49-1.27-1.02-1.9-1.62-3.34-3.18-5-3.19-7.84.46-1.46,1.87-3.49,4.43-5.06,1.83-2.52-4.17-5.78-3.16-9.19-3.07-.88.02-1.76-.15-3.19-.28,2.28-2.52,5.05-1.97,7.45-2.39,2.92-.51,4.8-1.8,5.49-4.94,1.04-4.74.71-5.23-4.38-4.64-1.55.18-3.1.33-4.66.4-.39.02-.79-.3-1.64-.65,3.47-3.55,8.44-2.07,12.13-4.2,3.61-2.09,3.18-7.98,8.14-8.69,1.79,2.54-1.19,4.29-.49,6.67,4.94,1.74,6.98-1.7,9.26-5.76.4,3.79,1.22,5.46,5.53,5.11,9.84-.79,9.88-.31,14.17,2.47-3.91,1.72-7.71.75-11.33.91-9.15.38-9.15.28-9.45,9.96,10.75,1.87,12.2,1.33,17.59-7.18.08,4.88.71,8.92,6.29,9.85Zm-36.04-4c-.93,2.47.37,2.99,3,3.04,4.38.07,4.82-2.88,5.34-6.04.27-1.63,1.66-3.66-.97-4.34-1.85-.48-4.03-.48-5.41,1.4-1.19,1.63-1.7,3.56-1.97,5.94Z"/>
    </g>
  </g>
</svg>