<?xml version="1.0" encoding="UTF-8"?>
<svg id="Layer_2" data-name="Layer 2" xmlns="http://www.w3.org/2000/svg" viewBox="0 0 73.14 111.64">
  <g id="Layer_1-2" data-name="Layer 1">
    <g>
      <path d="m46.11,103.63c1.39,2.54,3.92,2.17,4.36,5.57-7.28.81-14.56,1.62-21.94,2.44-.42-4.59,4.64-3.52,5.34-7.32-1.08-4.11-4.27-7.74-7.26-11.47-7.32-9.1-13.97-18.69-19.94-28.71C-8.04,39.49,2.66,13.25,28.29,2.38c19.76-8.38,41.89,6.32,44.54,28.86.99,8.37-.44,16.42-3.1,24.33-4.19,12.44-9.39,24.4-16.5,35.5-2.59,4.04-4.75,8.35-7.12,12.56Zm-5.62-.48c6.4-11.64,12.64-21.51,17.39-32.05,4.65-10.3,9.01-20.92,9.75-32.5.84-13.07-6.41-27.07-16.29-31.48-10.86-4.85-24.67-1.79-34.54,7.63C3.45,27.52.26,44.98,9.54,61.37c8.25,14.57,19.38,27.16,30.96,41.79Z"/>
      <g>
        <path d="m35.84,59.46c-3.62,1.12-6.8,2.57-10.12,3.05-6.35.92-10.64-3.64-9.1-9.89,2.49-10.1,9.76-16.32,19.24-18.77,8.17-2.11,13.7,3.93,18.45,9.8,4.04,4.99,4.69,10.48.65,15.68-4.04,5.22-9.46,4.26-14.79,2.22-1.57-.6-3.04-1.46-4.33-2.08Zm4.23-3.62c5.7,3.49,7.87,3.87,10.07,1.52,2.97-3.18,2.28-6.89.75-10.38-2.81-6.38-10.53-10.9-15.62-9.38-7.86,2.34-14.19,12.19-12.92,20.31,4.08,1.76,6.97-.42,9.65-2.87,2.08-4.24-.29-11.99,8.2-10.69,3.48,4.08-.33,7.41-.12,11.48Z"/>
        <path d="m16.95,38.36c-5.98-4.48-7.54-8.93-4.47-11.89,2.61-2.51,5.32-1.81,7.3.7,3.53,4.49,2.57,8.2-2.83,11.18Z"/>
        <path d="m47.69,32.16c-2.22-5.56.85-8.23,4.14-10.74,4.09-.11,6.66,1.7,5.75,5.44-1.09,4.51-4.14,7.22-9.89,5.31Z"/>
        <path d="m35.63,15.28c5.58,2.48,7.91,5.46,5.15,10.29-1.52,2.65-4.31,2.89-6.51.91-4.4-3.97-1.87-7.3,1.36-11.2Z"/>
      </g>
    </g>
  </g>
</svg>